<svg xmlns="http://www.w3.org/2000/svg" width="1600" height="863" viewBox="0 0 1600 863" role="img" aria-label="Arabic AI Atlas: map of Arabic AI entries by country">
<title>Arabic AI Atlas</title>
<style>
svg { --bg: #E6ECEA; --sheet: #F5F8F7; --ink: #15203A; --muted: #55627A; --rule: #C3CDC9; --rule-strong: #8A99A8; --sea: #D9E3E6; --sea-line: #B4C5CB; --grat: #BFCDD2; --land-x: #EDF1EF; --border-x: #D3DBD8; --ch0: #D3DCE9; --ch1: #B2C1D8; --ch2: #8EA2C3; --ch3: #6981AA; --ch4: #4B6390; --hatch-bg: #E4E9EC; --hatch-line: #A3B0BF; --halo: rgba(245, 248, 247, .92); --bubble-stroke: #FFFFFF; --ctry-line: #FFFFFF; }
@media (prefers-color-scheme: dark) {
  svg { --bg: #0E1724; --sheet: #142032; --ink: #E3E9F0; --muted: #98A6BA; --rule: #26354B; --rule-strong: #4A5D78; --sea: #0A111D; --sea-line: #182740; --grat: #16233A; --land-x: #152031; --border-x: #1E2B40; --ch0: #22324C; --ch1: #2A3F62; --ch2: #35517F; --ch3: #44659C; --ch4: #5A7EB8; --hatch-bg: #172336; --hatch-line: #33445E; --halo: rgba(10, 17, 29, .9); --bubble-stroke: #0E1724; --ctry-line: #0E1724; }
}
text { font-family: "IBM Plex Sans Arabic", "Noto Sans Arabic", -apple-system, "Segoe UI", Tahoma, Roboto, Helvetica, Arial, sans-serif; fill: var(--ink); }
.bg { fill: var(--bg); }
.sea { fill: var(--sea); }
.frame { fill: none; stroke: var(--rule-strong); stroke-width: 1; }
.graticule { fill: none; stroke: var(--grat); stroke-width: .6; }
.wl { fill: none; stroke-linejoin: round; }
.wl-0, .wl-2 { stroke: var(--sea-line); }
.wl-1, .wl-3 { stroke: var(--sea); }
.wl-0 { opacity: .45; stroke-width: 16; }
.wl-1 { stroke-width: 12; }
.wl-2 { opacity: .9; stroke-width: 8; }
.wl-3 { stroke-width: 4; }
.land { fill: var(--land-x); stroke: none; }
.borders-foreign { fill: none; stroke: var(--border-x); stroke-width: .7; }
.borders-arab { fill: none; stroke: var(--ctry-line); stroke-width: 1; }
.unlisted { fill: url(#hatch); }
.hatch-bg { fill: var(--hatch-bg); }
.hatch-line { stroke: var(--hatch-line); stroke-width: 1.4; }
.s-none { fill: var(--hatch-bg); }
.s0 { fill: var(--ch0); }
.s1 { fill: var(--ch1); }
.s2 { fill: var(--ch2); }
.s3 { fill: var(--ch3); }
.s4 { fill: var(--ch4); }
.pt { stroke: var(--ink); stroke-width: 1; }
.ghost { font-size: 17px; font-weight: 500; fill: var(--muted); opacity: .8; }
.halo, .ghost { paint-order: stroke; stroke: var(--halo); stroke-width: 4px; stroke-linejoin: round; }
.bubble { stroke: var(--bubble-stroke); stroke-width: 1.2; fill-opacity: .85; }
a:hover .bubble { fill-opacity: 1; }
.over { fill: none; stroke: var(--muted); stroke-dasharray: 2 2; }
.leader { stroke: var(--ink); stroke-width: 1; opacity: .55; }
.leader-dot { fill: var(--ink); opacity: .7; }
.l-ar { font-size: 22px; font-weight: 700; }
.l-en { font-size: 15px; fill: var(--muted); }
.l-n { font-size: 15px; font-weight: 600; }
.l-n.empty { font-weight: 400; fill: var(--muted); }
.title { font-size: 32px; font-weight: 700; }
.sub { font-size: 17px; fill: var(--muted); }
.panel { fill: var(--sheet); fill-opacity: .92; stroke: var(--rule); stroke-width: 1; }
.lg-h { font-size: 16px; font-weight: 600; }
.lg { font-size: 15px; fill: var(--muted); }
.lg-ring { fill: none; stroke: var(--muted); stroke-width: 1; }
.void { opacity: .35; }
.dock-ar { font-size: 26px; font-weight: 700; }
.dock-en { font-size: 16px; fill: var(--muted); }
.dock-note { font-size: 14px; fill: var(--muted); }
.di-t { font-size: 17px; font-weight: 600; }
.di-n { font-size: 15px; fill: var(--muted); }
.rule { stroke: var(--rule); stroke-width: 1; }
.footer { font-size: 15px; fill: var(--muted); }
</style>
<defs>
<clipPath id="frame"><rect x="0" y="0" width="1600" height="653"/></clipPath>
<pattern id="hatch" patternUnits="userSpaceOnUse" width="6" height="6" patternTransform="rotate(45)"><rect class="hatch-bg" width="6" height="6"/><line class="hatch-line" x1="0" y1="0" x2="0" y2="6"/></pattern>
<path id="land" d="M255 243.3L254.7 244.6 253.5 248.1 246.3 276.6 191.2 261.2 178.6 309.2 161.9 306.4 155 314.8 150.6 342.8 82.6 322.3 76.9 327.3 80.1 319.7 80.4 319.9 119.9 330.3 123.9 324.2 133.5 317.9 146.7 293.8 176.1 280.4 190.7 259.1 196.2 259.1 205.7 246 220.3 247.8 225.7 251.8 233.3 253.7 239.8 250.9 250.4 252.9 252.5 242.6ZM1488.8 -12L1487.8 3.1 1475.1 3.2 1466.9 5.9 1463.3 -5.7 1440.9 -7.1 1422.3 -11.2 1420.6 -12ZM1281.1 665L1291.4 649 1302 629.7 1308.4 615.7 1306.3 605.4 1302.3 585.5 1300.7 577.4 1300.8 577 1306.9 575.4 1315.1 570.6 1324.9 566.5 1332.5 557.9 1339.7 556.3 1341.3 561.6 1342.1 573.3 1344.4 583.6 1341.9 591.6 1341 614.2 1336.3 638.3 1329.7 665ZM804.5 665L805.5 662.4 805.3 654.1 793.9 641.6 791.7 633 791.9 628.1 784.7 622.2 784.6 610.6 780.5 602.9 773.7 604 775.7 596.7 780.8 588.4 778.6 580.2 785 574.1 781 569.5 786.1 557.3 794.8 542.8 811.2 544.1 809.8 466.2 809.9 458 831.1 457.7 830.5 418.8 903 416.5 972.8 412.2 1044.1 405.7 1052 424.1 1048.4 428 1053.2 447.7 1062.5 470.2 1070.1 474.2 1081 480.2 1072.9 492.4 1059.6 497.2 1054.3 503.8 1053.9 517 1048.7 546.7 1051.6 554.3 1050.2 571.6 1044.4 591.9 1033.6 602.9 1026.7 618.9 1025.4 627.2 1016.6 633.7 1012.5 655.2 1013.5 665 1012.8 657.6 1010 657.4 1009.5 647.4 1006.6 640.7 995.8 633.6 992.3 619.4 993.5 604.4 984.4 603.8 983.4 608.3 971.7 610.2 976.8 615.7 979.3 627.6 969.3 639.3 960.4 654.5 950.3 657.2 933 646.4 925.7 650.9 923.9 656.9 913.9 661.2 913.5 665 892.6 665 890.7 662.2 876.3 662 870.5 665 866.9 665 863.7 664.1 853.1 652.6 849.6 647.1 835.4 650.1 830.1 659.6 828.6 665ZM809.8 466.2L811.2 544.1 794.8 542.8 786.1 557.3 781 569.5 785 574.1 778.6 580.2 780.8 588.4 775.7 596.7 773.7 604 780.5 602.9 784.6 610.6 784.7 622.2 791.9 628.1 791.7 633 779.2 636.4 769.1 644.4 755.3 665 619.6 665 614.2 658.8 619.2 649.6 628.1 652.2 633.8 651.2 644.8 652 635.2 633.1 636.7 619.8 636.2 606.5 629.3 593.3 631.9 584 619.5 582.8 620.4 570 613 562.1 623.1 536.7 648.3 519.8 650.8 494.3 660.2 455.1 664.7 446.9 657.4 439.8 657.5 433.6 651 428.2 648.5 397.7 667.1 388.1 737.3 428.2ZM1172.5 -12L1177.2 -7.3 1169.9 2.4 1168.4 7.9 1161.6 7.8 1149.1 -2.3 1144.8 -2.2 1134.7 -5.2 1129.2 -12 1109.8 -12 1105.8 -9.8 1103.7 -12ZM550.6 -12L550.3 -11.8 549.8 -12 498 -12 496.2 -6 478.6 -6.2 471.2 -12ZM581.9 2.2L592.3 -4.5 593 13 586.4 28 580 23.2 578.1 9.3ZM39.3 468L36.3 450.9 29.4 441.3 38.6 440.3 51.5 429.8 58.8 421.5 67 417.4 75.4 421.8 85.4 420.4 95.6 423.2 102.6 431.3 113.2 439.8 120.3 456.9 128.8 473.4 126.4 485.5 127 497.5 132.5 504.8 132.1 512.6 129.6 518.4 126.6 518.7 116.8 514.4 114.8 516.2 110.5 515.4 98.4 506.9 89.4 504.2 55.2 493.1 49.5 493.7 43.5 491.2 32.7 491.2 34.2 475.7 51 481.4 56.2 480.1 59.6 480.9 67.8 478.6 74.6 485 82.5 487.7 91.8 485.8 89.7 479.2 82.6 480.6 76.9 478.8 71 472 65.1 470.5 59.5 473.7ZM129.6 518.4L132.1 512.6 132.5 504.8 127 497.5 126.4 485.5 128.8 473.4 135.9 471.6 142.1 461.2 148.1 462.4 159.5 471.1 170.9 470.1 177.7 473.2 181.6 469.6 255.8 487.1 263 474.5 260.3 471.4 270.1 387 280.3 303.2 306.6 308.8 356.9 362.3 409.5 414.8 412.4 424.5 422.8 431.8 430.7 436.2 429 448.6 449.6 449.7 443.2 494.4 431 505.9 427.6 517.7 410.4 518.2 384.5 515.7 376.4 521.5 364.2 520.2 352.2 518.1 348.1 513.5 337.3 514.3 318.2 519.1 313.4 524.5 297 530.3 293.4 534.7 284.7 537.1 276.1 532.6 269.9 536.2 264.3 549 245.6 561.9 244.6 568.6 237.5 575.7 236.2 587.4 227.6 588.6 222.5 590 221.5 580.9 215.4 581.9 212.1 580.7 207.3 585.6 192.4 581.9 187.7 577.7 184.8 578.9 180.3 571.8 182.7 566.2 180.9 563.4 176.3 564.3 178.7 558.1 183.8 554.1 178 544 177.1 538.1 173.9 532.8 170.3 531.3 165.1 532.9 158.3 533.9 152 536.7 144.3 533 140.4 526.8 137.4 525.3 131.8 526.5 128.8 525.7ZM76.9 327.3L82.6 322.3 150.6 342.8 155 314.8 161.9 306.4 178.6 309.2 191.2 261.2 246.3 276.6 253.5 248.1 306.6 308.8 280.3 303.2 270.1 387 260.3 471.4 263 474.5 255.8 487.1 181.6 469.6 177.7 473.2 170.9 470.1 159.5 471.1 148.1 462.4 142.1 461.2 135.9 471.6 128.8 473.4 120.3 456.9 113.2 439.8 102.6 431.3 95.6 423.2 85.4 420.4 75.4 421.8 67 417.4 58.8 421.5 60.5 410.9 68.4 403.2 76 386.3 79.9 367.2 80.6 357.2 85.3 348.5 83.5 338.2ZM364.7 665L369.6 638.7 366.3 634 367.2 624 361.6 615.9 356.6 609.1 360.8 599.1 367.9 597.9 373.3 590 383.1 589.7 388.3 584.5 395.7 579.7 402.6 580.7 415.6 594.4 413.9 600.9 416.5 613.3 411.5 620.7 412.7 626.4 401.3 637.3 394.2 642.5 388.5 654.5 387.3 665ZM648.5 397.7L651 428.2 657.5 433.6 657.4 439.8 664.7 446.9 660.2 455.1 650.8 494.3 648.3 519.8 623.1 536.7 613 562.1 620.4 570 619.5 582.8 631.9 584 629.3 593.3 623.8 594.1 622.7 600.4 619 600.5 607.5 577.9 603.1 576.7 587.1 586.6 572.7 579.5 562.4 577.5 556.6 579.7 545.3 578 533.1 585.3 523.2 584.8 501 571.9 491.3 575.7 481.5 574.1 475.3 565.8 457 555.9 436.2 555.4 430.7 558.9 426.3 569.8 419.6 576.9 415.6 594.4 402.6 580.7 395.7 579.7 388.3 584.5 390.9 571 369.5 562.9 370.5 553.3 362 538.7 361.1 529.3 364.2 520.2 376.4 521.5 384.5 515.7 410.4 518.2 427.6 517.7 431 505.9 443.2 494.4 449.6 449.7 476.5 444.7 533.6 413 598.5 382.2 626 392.7 635.3 404.1ZM387.3 665L388.5 654.5 394.2 642.5 401.3 637.3 412.7 626.4 411.5 620.7 416.5 613.3 413.9 600.9 415.6 594.4 419.6 576.9 426.3 569.8 430.7 558.9 436.2 555.4 457 555.9 475.3 565.8 481.5 574.1 491.3 575.7 501 571.9 523.2 584.8 533.1 585.3 545.3 578 556.6 579.7 562.4 577.5 572.7 579.5 587.1 586.6 603.1 576.7 607.5 577.9 619 600.5 622.7 600.4 629.9 608.8 627.5 612.3 626.1 618.8 608.5 633.2 602.3 645.6 598.7 655.8 594.1 660 592.3 665ZM629.3 593.3L636.2 606.5 636.7 619.8 635.2 633.1 644.8 652 633.8 651.2 628.1 652.2 619.2 649.6 614.2 658.8 619.6 665 592.3 665 594.1 660 598.7 655.8 602.3 645.6 608.5 633.2 626.1 618.8 627.5 612.3 629.9 608.8 622.7 600.4 623.8 594.1ZM360.8 599.1L356.6 609.1 361.6 615.9 367.2 624 366.3 634 369.6 638.7 364.7 665 342.3 665 348 651.9 344.3 643.7 345.2 627.7 347.8 613.2 341.4 601.6 343.9 595.6ZM343.9 595.6L341.4 601.6 347.8 613.2 345.2 627.7 344.3 643.7 348 651.9 342.3 665 267.4 665 271.1 656.8 282.8 641.7 283.3 612.4 283.6 597 286.3 585.8 320.1 591.5 328.4 594.5 335.3 592.5ZM184.8 578.9L187.7 577.7 192.4 581.9 207.3 585.6 212.1 580.7 215.4 581.9 221.5 580.9 222.5 590 227.6 588.6 236.2 587.4 244 593.6 246 600.9 253.9 606.9 261.7 603.4 271 604.5 283.3 612.4 282.8 641.7 271.1 656.8 267.4 665 169.1 665 165.9 659.8 159.9 656.9 155.5 650 162 642.2 162.3 632.1 164.7 626.6 167.8 627.3 171.1 619 170.5 614.8 173.1 612.5 180.9 611.9 179.9 594.9 177.4 585.7 180.6 579.5ZM89.4 504.2L98.4 506.9 110.5 515.4 114.8 516.2 116.8 514.4 126.6 518.7 129.6 518.4 128.8 525.7 131.8 526.5 137.4 525.3 140.4 526.8 144.3 533 152 536.7 158.3 533.9 165.1 532.9 170.3 531.3 173.9 532.8 177.1 538.1 178 544 183.8 554.1 178.7 558.1 176.3 564.3 180.9 563.4 182.7 566.2 180.3 571.8 184.8 578.9 180.6 579.5 177.4 585.7 179.9 594.9 180.9 611.9 173.1 612.5 170.5 614.8 171.1 619 167.8 627.3 164.7 626.6 159.3 624.7 153.3 631.7 147.8 630.2 144.9 625 148.3 617.4 143.2 603.2 137.5 604.1 133.3 603.5 127.6 603.2 129.7 596 128 590.1 130.1 584.6 128.1 575.2 124.6 566.8 109.3 562.7 103.8 565.1 98.4 564.1 93.9 567.4 90.2 572.1 77.5 577.8 72.4 563.9 67.2 554.1 63.1 550.2 59.5 544.9 59.8 535.7 58.3 530.7 53.8 525.9 64.9 519 70.5 521.1 76.4 519.3 80.6 520.5 84.3 518.8 84.5 511.9 87.2 510.5ZM32.7 491.2L43.5 491.2 49.5 493.7 55.2 493.1 89.4 504.2 87.2 510.5 84.5 511.9 84.3 518.8 80.6 520.5 76.4 519.3 70.5 521.1 64.9 519 53.8 525.9 46.1 514.8 38.6 511.1 36 504.4 37 501.5 32.6 495.7ZM164.7 626.6L162.3 632.1 162 642.2 155.5 650 159.9 656.9 165.9 659.8 169.1 665 128 665 125.1 660.9 111 645.5 101.1 629.2 107.5 624.1 110.1 618.6 121.8 610.3 133.3 603.5 137.5 604.1 143.2 603.2 148.3 617.4 144.9 625 147.8 630.2 153.3 631.7 159.3 624.7ZM77.5 577.8L90.2 572.1 93.9 567.4 98.4 564.1 103.8 565.1 109.3 562.7 124.6 566.8 128.1 575.2 130.1 584.6 128 590.1 129.7 596 127.6 603.2 133.3 603.5 121.8 610.3 110.1 618.6 107.5 624.1 101.1 629.2 96.2 626.3 84.3 614.4 77.2 601.1 75.8 592.9ZM236.2 587.4L237.5 575.7 244.6 568.6 245.6 561.9 264.3 549 269.9 536.2 276.1 532.6 284.7 537.1 293.4 534.7 297 530.3 313.4 524.5 318.2 519.1 337.3 514.3 348.1 513.5 352.2 518.1 364.2 520.2 361.1 529.3 362 538.7 370.5 553.3 369.5 562.9 390.9 571 388.3 584.5 383.1 589.7 373.3 590 367.9 597.9 360.8 599.1 343.9 595.6 335.3 592.5 328.4 594.5 320.1 591.5 286.3 585.8 283.6 597 283.3 612.4 271 604.5 261.7 603.4 253.9 606.9 246 600.9 244 593.6ZM755.3 665L769.1 644.4 779.2 636.4 791.7 633 793.9 641.6 805.3 654.1 805.5 662.4 804.5 665ZM1003.3 200.6L1001 207 994.8 204.8 992.6 218.1 996.9 219.9 992.9 223 992.6 228.2 1000.2 224.8 1001.4 232.3 995.9 264.1 993.8 259.2 981.9 231.7 986.2 224.9 984.9 223.9 988.5 214.5 990.5 199.5 992.4 194.3 992.8 194.1 998.3 193.6 999.4 190 1003.8 189.3 1004.8 197.3 1002.9 200.5ZM1003.8 189.3L999.4 190 998.3 193.6 992.8 194.1 997.1 177.6 1003.8 163.1 1004 162.4 1011.3 162.7 1014.8 170 1006.7 178.3ZM1000.2 224.8L992.6 228.2 992.9 223 996.9 219.9 992.6 218.1 994.8 204.8 1001 207 1002.1 218.9ZM39.3 468L59.5 473.7 65.1 470.5 71 472 76.9 478.8 82.6 480.6 89.7 479.2 91.8 485.8 82.5 487.7 74.6 485 67.8 478.6 59.6 480.9 56.2 480.1 51 481.4 34.2 475.7ZM567.6 245.8L564.2 210.3 555 201.4 555.3 196.6 543.3 183.5 543.7 168.7 554.9 159 560.4 143.3 560 124.4 564.4 114.6 582.3 108.5 593.1 112 591.6 121.9 605.7 116 606.5 119.8 597.7 128.8 596.7 137.8 601.7 143.2 598.1 160 586.5 168.8 588.5 179.7 596.9 180.8 600.1 190.5 606 194.1 603.8 209 595.3 213.8 589.6 219.6 577.5 225.9 578.5 234.1 576.2 242.2ZM253.5 248.1L254.7 244.6 255 243.3 260.4 220.9 290.5 213.4 307.5 214.3 322.1 212.2 330.5 204.1 351.3 200.6 354.9 186.6 364.7 186.9 373.5 181.3 395.3 182.2 399.7 175.3 396.2 170.4 394.5 149 395.8 137.1 392.3 123.6 409.4 115.9 427 115.7 438.3 109.4 454.4 106.1 481.5 106.9 507.6 109.1 515.1 113.1 530.9 107.3 547.7 109.3 553.5 114.6 564.4 114.6 560 124.4 560.4 143.3 554.9 159 543.7 168.7 543.3 183.5 555.3 196.6 555 201.4 564.2 210.3 567.6 245.8 571.2 263.5 571.3 272.6 566.6 288 567 297 563.7 307.3 564 319.6 556.3 327 565.1 342.1 565 350.5 570.2 361.9 578.7 359.1 591.8 369.4 598.5 382.2 533.6 413 476.5 444.7 449.6 449.7 429 448.6 430.7 436.2 422.8 431.8 412.4 424.5 409.5 414.8 356.9 362.3 306.6 308.8ZM1001 207L1003.3 200.6 1022.3 206.4 1051.9 182 1061.4 204.9 1058.6 208.2 1026.7 221.7 1045.4 239.2 1040.3 243.2 1038.3 249.9 1025.8 254 1022.5 261.4 1015.8 268.1 996.7 266.8 995.9 264.1 1001.4 232.3 1000.2 224.8 1002.1 218.9ZM1296.5 320.1L1299.3 318.5 1301.1 323.5 1314 317.5 1328.4 314.6 1338.9 312.7 1347.5 297 1357.2 281.8 1365 267.4 1369.8 273 1376 287.2 1367.3 289.6 1369 302.2 1372.8 304 1366 309.7 1367.9 317.4 1364.8 326.5 1366.3 334.2 1363.8 339.1 1309.1 342 1298.1 324.3ZM1281 313.4L1276.9 299.8 1279.4 288.8 1283.6 285.8 1290.1 290.6 1292.8 301.6 1291.6 313.6 1287.1 316ZM1212.8 223.9L1217.9 231.6 1217.2 236.3 1225.4 249.6 1213.7 252.4 1207.8 244.1 1192.5 245 1201.3 224.4ZM1061.4 204.9L1051.9 182 1084.9 157.2 1087.7 132.8 1084.2 118.8 1092.1 112.7 1098.3 99.3 1104.5 95.2 1123 94.9 1129.3 99 1136.2 94.4 1150.3 115.9 1161.6 119.9 1164.8 131 1158.1 139.1 1157 154.9 1171.4 171.2 1193.1 178.1 1204.3 191.1 1204.2 205.5 1209.5 204.5 1211.7 214.6 1222.7 222.9 1212.8 223.9 1201.3 224.4 1192.5 245 1161.2 248.9 1108.2 217.7 1081.8 207.6ZM1366.3 334.2L1364.8 326.5 1367.9 317.4 1366 309.7 1372.8 304 1369 302.2 1367.3 289.6 1376 287.2 1387.1 298 1398.5 302.3 1411.7 301.3 1422.8 301.9 1433.6 310.4 1440 315.3 1446.9 315.9 1448 320 1444.9 333 1443.7 339.1 1438 347.1 1435.1 361.8 1426.8 363.1 1424.4 368.6 1424.2 378.9 1429.8 390.9 1428.8 393.6 1420.5 395.8 1411.2 405.9 1411.9 415.6 1408.8 420.7 1397.5 423.4 1391.6 430 1393.7 437.7 1386.2 445.2 1375.7 445.9 1365 455.3 1356.8 458.4 1347.7 446.4 1326.3 418.1 1375.5 386.3 1377.7 345.5ZM1369.8 273L1365 267.4 1368.2 259.8 1370.7 260.8 1371.2 269ZM1612 272.5L1609.5 271.4 1612 267.1 1612 259.6 1607.5 256.4 1582.1 248.2 1588.8 231.9 1612 223.2 1612 202.2 1603.3 198.3 1596.1 185 1582.5 180.8 1593 155.1 1612 149.3 1612 38.7 1608 34.8 1596.1 21.1 1600.2 10.3 1612 7.8ZM1612 -12L1612 7.8 1600.2 10.3 1596.1 21.1 1608 34.8 1612 38.7 1612 149.3 1593 155.1 1582.5 180.8 1596.1 185 1603.3 198.3 1612 202.2 1612 223.2 1588.8 231.9 1582.1 248.2 1568.2 247.9 1558.6 236.5 1540.9 227.1 1511.4 240.9 1484.4 250 1461.6 259.9 1461.3 236.4 1482.2 219.4 1478.1 211.3 1469.2 210.8 1463.7 194.6 1445.5 191.3 1435.6 182 1424.6 174.7 1454.6 175.9 1469.9 168 1480.3 167.2 1482.2 162.1 1494 160 1512.1 145.3 1507.3 129.4 1512.4 116 1524.1 111.8 1524 106.1 1535.1 99.4 1541.5 99 1545.6 91.6 1540.7 80.9 1543.2 67.4 1551.2 59.1 1540.5 49.3 1555.2 44.3 1556.8 36.1 1553.5 29.3 1558 18.7 1552.7 10.3 1546.1 3.9 1551.7 -7.5 1558 -12ZM1466.9 5.9L1475.1 3.2 1487.8 3.1 1493.1 3.7 1501.7 -6.1 1508 -4.4 1509.2 -12 1549.3 -12 1550 -11.7 1550.2 -12 1558 -12 1551.7 -7.5 1546.1 3.9 1552.7 10.3 1558 18.7 1553.5 29.3 1556.8 36.1 1555.2 44.3 1540.5 49.3 1551.2 59.1 1543.2 67.4 1540.7 80.9 1545.6 91.6 1541.5 99 1535.1 99.4 1524 106.1 1524.1 111.8 1512.4 116 1507.3 129.4 1512.1 145.3 1494 160 1482.2 162.1 1480.3 167.2 1469.9 168 1454.6 175.9 1424.6 174.7 1434.1 153.4 1429.1 141.8 1416.1 142.3 1411.3 130.8 1401.7 117.4 1405.3 105.1 1397.7 104.4 1397.9 89.4 1397.1 64.1 1415 66.4 1425.7 60.3 1426.2 50.8 1437.3 44.1 1443.9 35.6 1442 19.6 1453.3 11.7 1453.4 4.2 1462.2 6.9ZM1487.8 3.1L1488.8 -12 1550.2 -12 1550 -11.7 1549.3 -12 1509.2 -12 1508 -4.4 1501.7 -6.1 1493.1 3.7ZM1239.7 -12L1420.6 -12 1422.3 -11.2 1440.9 -7.1 1463.3 -5.7 1466.9 5.9 1462.2 6.9 1453.4 4.2 1453.3 11.7 1442 19.6 1443.9 35.6 1437.3 44.1 1426.2 50.8 1425.7 60.3 1415 66.4 1397.1 64.1 1391 48.6 1379.5 51.3 1357.2 39.5 1344.6 40.8 1325.2 35.7 1314 36.8 1308.3 42.1 1298 44.2 1289.9 57.9 1277.4 64.9 1271.3 52 1268.6 31.2 1255.3 27.5 1256 13.2 1245.8 14.4 1245.3 -2.8 1260.4 -1.3 1271.8 -10.8 1270 -12 1242 -12 1242.6 -7.5ZM1222.7 222.9L1211.7 214.6 1209.5 204.5 1204.2 205.5 1204.3 191.1 1193.1 178.1 1171.4 171.2 1157 154.9 1158.1 139.1 1164.8 131 1161.6 119.9 1150.3 115.9 1136.2 94.4 1125.1 80.2 1127.1 73.6 1118.6 51.9 1128.1 44.5 1131.8 51.6 1141.1 59.3 1152 60 1157.4 58.5 1172.6 40.7 1178 38.1 1183.6 43 1180.3 53.7 1191.8 62 1195.4 60.3 1203.2 73.7 1218.6 74.7 1231.4 82.1 1254.1 80.5 1277 69.8 1277.4 64.9 1289.9 57.9 1298 44.2 1308.3 42.1 1314 36.8 1325.2 35.7 1344.6 40.8 1357.2 39.5 1379.5 51.3 1391 48.6 1397.1 64.1 1397.9 89.4 1397.7 104.4 1405.3 105.1 1401.7 117.4 1411.3 130.8 1416.1 142.3 1429.1 141.8 1434.1 153.4 1424.6 174.7 1435.6 182 1445.5 191.3 1463.7 194.6 1469.2 210.8 1478.1 211.3 1482.2 219.4 1461.3 236.4 1461.6 259.9 1428.2 263.7 1408.6 264.6 1388.9 267.4 1375.6 246.3 1366.7 245.1 1354.7 251.8 1340 265.2 1317.9 264 1297.5 253.4 1280.2 251.7 1265 236.2 1247.4 213.4 1239.2 218.3 1227.4 214.2ZM1003.3 200.6L1002.9 200.5 1004.8 197.3 1003.8 189.3 1006.7 178.3 1014.8 170 1011.3 162.7 1004 162.4 1001 147.6 1004.1 139.1 1007.9 134.4 1011.7 129.6 1011.4 118.6 1017 121.9 1033.7 114.4 1042.5 117.2 1055.4 115.5 1072.5 105.8 1080.9 104.9 1098.3 99.3 1092.1 112.7 1084.2 118.8 1087.7 132.8 1084.9 157.2 1051.9 182 1022.3 206.4ZM1157.4 58.5L1152 60 1143.8 49.8 1143.3 46.7 1136.6 48 1131.2 43.5 1128.1 44.5 1121.2 39.8 1109.1 36.7 1109 26.8 1105.4 20.2 1125.6 13.7 1129.6 18.4 1135.9 20.8 1133.8 26.3 1143 31.7 1139.8 38.7 1147.2 42.9 1154.6 44.9ZM876.6 -12L876.4 -9.9 867.7 -11.7 867.2 -12 837.5 -12 832.3 -8.2 810.6 -9 799.5 -12 799 -12 793.6 -10.6 792.8 -12ZM792.8 -12L793.6 -10.6 799 -12 799.5 -12 810.6 -9 832.3 -8.2 837.5 -12 867.2 -12 867.7 -11.7 876.4 -9.9 869.1 -1.2 864.2 13.5 869.4 24.9 856.4 22.7 841.3 29.4 841.4 39.5 827.7 41.7 816.9 34.8 804.9 40.4 793.6 39.9 792.6 26.5 785.1 20 787.6 17.1 786 14.7 788.5 8.3 794.1 1.9 787 -6.9 786.1 -12ZM847.2 159.3L845.3 165.2 822.1 167.3 822.3 164 802.6 160.4 805.6 152 814.4 158.6 826.9 157.3 838.8 158.4 838.5 161.9ZM793.6 39.9L804.9 40.4 816.9 34.8 827.7 41.7 841.4 39.5 841.3 29.4 848.8 34.6 844.4 47.3 840.8 49.7 831.6 49.3 823.6 47.5 805.3 53 815.9 64.2 808.2 67.5 799.7 67.5 791.5 57.2 788.7 61.6 792.1 73.6 799.8 82.9 794 87.3 802.6 96.5 810.4 102.2 810.7 113.4 796.2 108.2 800.8 118.3 790.8 120.4 796.8 137.9 786.3 138.1 773.3 129.4 767.6 113.5 765 100.3 759.1 91 751.4 79.5 750.5 73.8 757.8 64.2 758.8 57.7 763.9 54.9 764.2 49.6 774.2 48 780 43.6 788.2 44.1 790.8 40.6ZM1136.2 94.4L1129.3 99 1123 94.9 1104.5 95.2 1098.3 99.3 1080.9 104.9 1072.5 105.8 1055.4 115.5 1042.5 117.2 1033.7 114.4 1017 121.9 1011.4 118.6 1011.7 129.6 1007.9 134.4 1004.1 139.1 997.4 130.8 1002.6 122.8 993.2 125.5 979.5 122.2 969.7 134.4 945.8 138.5 932.2 128.9 915.1 129.3 911.9 137.7 901 140.6 885.2 130.8 867.9 131.9 857.9 112.5 846.2 101.8 853.3 86.2 843.3 76.9 859.7 57.3 883.2 55.6 888.9 40 917.9 41.1 935.1 26.8 952.2 19.8 976.9 17.2 1004.5 28.7 1027.1 34 1044.2 28.8 1057.4 28.9 1073.6 16 1089.4 12.7 1105.4 20.2 1109 26.8 1109.1 36.7 1121.2 39.8 1128.1 44.5 1118.6 51.9 1127.1 73.6 1125.1 80.2ZM841.3 29.4L856.4 22.7 869.4 24.9 871.5 32.6 885 38.5 882.5 43.6 864.5 45.5 858.2 51.9 845.8 63.1 840.8 53.8 840.8 49.7 844.4 47.3 848.8 34.6ZM764.2 49.6L763.9 54.9 758.8 57.7 757.8 64.2 750.5 73.8 747.9 72.3 747.7 67.9 739.4 61 738.3 51.4 740 37.7 742.2 31.5 739.7 28.2 738.9 21.8 745.7 11.9 746.5 15.8 750.6 14.1 753.7 19.6 757.2 21.7 758.1 29.1 756.1 35.9 758 44.6ZM702.5 -12L704.5 -9.5 709.9 -4.7 715.2 4 728.1 12.2 726.3 15.6 712.6 7.6 704.3 -0.1 691.1 -6.9 687.3 -12ZM353.4 -12L353.6 -10.9 345.5 -7.2 341.7 8 338.7 10.3 335.9 19.4 329.1 19.4 332.3 32.5 325.1 44.3 329 51.2 325.7 56 318.3 61.9 318 68.6 310.7 72.1 303.2 67.4 294.8 67.6 300.9 53.1 302.4 40.9 296.1 37.4 294.3 29.2 298.7 16.9 306.5 11.3 309.5 3.8 315.5 -7.2 316.5 -12ZM318 68.6L318.3 61.9 325.7 56 329 51.2 325.1 44.3 332.3 32.5 329.1 19.4 335.9 19.4 338.7 10.3 341.7 8 345.5 -7.2 353.6 -10.9 353.4 -12 471.2 -12 478.6 -6.2 496.2 -6 495.2 5.7 479 16.8 459.1 17.8 456.6 24.2 445.4 33.5 436.7 48.5 440.6 60.8 430.2 67.9 424.6 80 412.2 81.7 398.3 94.5 378.5 90.9 363.8 87.4 352.6 92.2 345.1 98.1 337.8 94.8 333.5 87 331.7 74.9ZM653.1 -12L654.4 -10.8 660.7 6.5 676.3 23.8 688 24.4 691.5 29.1 687 32.9 700.2 40.8 711.1 47.4 723.7 58.4 725.2 62.2 722 69.2 713.9 59.6 700.7 55.7 693.7 68.3 704.5 76.2 702.1 86.6 695.6 87.5 686.5 104 679.8 105.2 680.2 99.2 684 88.7 687.6 84.6 682.2 72.8 678.1 62.4 671.9 59.5 668 50.6 658.4 46.3 652.4 37.8 641.3 35.6 630.3 25.6 617.7 11.3 608.7 -1.3 607.4 -12ZM665.7 99.7L677.7 98.7 671.1 114 673.1 120.2 669.2 130.2 657.5 122 649.7 119.3 628.6 107.6 631.5 97.6 649.6 100.8ZM577.6 36.8L585.8 31.4 593.4 46.5 588.5 72.7 581.7 70.7 574.7 76.6 569.5 70.7 571.6 46.7 569.4 34.9ZM1144.8 -2.2L1149.1 -2.3 1161.6 7.8 1168.4 7.9 1169.9 2.4 1177.2 -7.3 1187.1 1.5 1197.5 13.9 1204.7 13.4 1210.4 17.7 1198.4 21.9 1198.9 37.6 1197.7 45 1193.1 50.7 1195.4 60.3 1191.8 62 1180.3 53.7 1183.6 43 1178 38.1 1172.6 40.7 1157.4 58.5 1154.6 44.9 1147.2 42.9 1139.8 38.7 1143 31.7 1133.8 26.3 1135.9 20.8 1129.6 18.4 1125.6 13.7 1128.7 9.8 1140.9 13.6 1149.1 13.3 1150.7 10.6 1141.5 1.2ZM1152 60L1141.1 59.3 1131.8 51.6 1128.1 44.5 1131.2 43.5 1136.6 48 1143.3 46.7 1143.8 49.8ZM1103.7 -12L1105.8 -9.8 1109.8 -12 1129.2 -12 1134.7 -5.2 1144.8 -2.2 1141.5 1.2 1150.7 10.6 1149.1 13.3 1140.9 13.6 1128.7 9.8 1125.6 13.7 1105.4 20.2 1089.4 12.7 1073.6 16 1074.7 7.1 1069 -6 1059.8 -12ZM1051.6 554.3L1048.7 546.7 1053.9 517 1054.3 503.8 1059.6 497.2 1072.9 492.4 1081 480.2 1094.5 501.5 1102 518.7 1113.5 527 1141.8 542 1154 551.6 1166 561.5 1173 567.3 1183.3 571.8 1178.3 577.5 1169.8 577.1 1162.3 571.7 1152.7 561.3 1143.3 556.1 1137.5 550 1119.9 544.4 1106.8 545.9 1101.7 542.3 1091.1 548.3 1078.5 540.7 1074.2 556.1ZM1326.3 418.1L1347.7 446.4 1356.8 458.4 1344.7 466.6 1343.1 475.9 1344.2 482.6 1327.5 494.8 1299.5 510.2 1285.5 527.4 1277.4 530.1 1271.5 530.1 1261.9 540.3 1250.5 546.3 1234.7 550.2 1230.1 552.2 1226.9 558.1 1222.1 560.4 1220 565.8 1210.4 567 1204.7 570.7 1191.3 571.8 1184.5 561.1 1183.4 550.3 1179.3 545 1173.4 531.1 1166.7 523.9 1170.4 522.4 1167.1 513.7 1168.8 509.6 1166.7 501.3 1173.8 493.8 1170.7 485.9 1174.1 475.6 1182.5 479.4 1187.2 476.9 1208.5 472.8 1212.1 474.2 1230.4 473 1237.2 470.7 1243.1 476.3 1251.1 471.4 1260.4 448.7 1275.6 436.6ZM996.7 266.8L1015.8 268.1 1022.5 261.4 1025.8 254 1038.3 249.9 1040.3 243.2 1045.4 239.2 1026.7 221.7 1058.6 208.2 1061.4 204.9 1081.8 207.6 1108.2 217.7 1161.2 248.9 1192.5 245 1207.8 244.1 1213.7 252.4 1225.4 249.6 1235.3 264.7 1244.5 267.4 1248.7 273.4 1262 279 1264.6 286.6 1264.3 293.3 1267.8 299.3 1273.9 303.5 1277.5 309.3 1281 313.4 1287.1 316 1291.6 313.6 1296.5 320.1 1298.1 324.3 1309.1 342 1363.8 339.1 1366.3 334.2 1377.7 345.5 1375.5 386.3 1326.3 418.1 1275.6 436.6 1260.4 448.7 1251.1 471.4 1243.1 476.3 1237.2 470.7 1230.4 473 1212.1 474.2 1208.5 472.8 1187.2 476.9 1182.5 479.4 1174.1 475.6 1170.7 485.9 1173.8 493.8 1166.7 501.3 1162.9 493.4 1156.5 488.4 1153.9 480.8 1143.3 475.2 1131.2 460.4 1123.8 445.3 1109.4 433.7 1100.8 431.6 1086.5 414.7 1082.8 401.5 1082.2 390 1069.4 369.8 1060.2 363.3 1050.3 360.4 1043.2 349.9 1043.7 345.5 1037.8 336 1032.3 332.2 1024 318.6 1012 304 1002 291.6 993.5 292.5 995.2 281.6 995.3 274.8ZM950.7 157.3L951.8 157.1 953.8 152.2 965.3 151.5 979.4 144.5 969.3 153.7 970.8 157.3 969 156.8 966.1 158.5 963.6 158.3 962.8 159.1 962.4 157.2 961.1 156 958 156.1 953.8 158.1ZM950.7 157.3L953.8 158.1 958 156.1 961.1 156 962.4 157.2 962.8 159.1 963.6 158.3 966.1 158.5 969 156.8 970.8 157.3 971.4 158.9 955.5 168.1 947.4 166.2 943.2 158.6ZM392.3 123.6L395.8 137.1 394.5 149 396.2 170.4 399.7 175.3 395.3 182.2 373.5 181.3 364.7 186.9 354.9 186.6 351.3 200.6 330.5 204.1 322.1 212.2 307.5 214.3 290.5 213.4 260.4 220.9 255 243.3 252.5 242.6 250.4 252.9 239.8 250.9 233.3 253.7 225.7 251.8 220.3 247.8 205.7 246 196.2 259.1 190.7 259.1 176.1 280.4 146.7 293.8 133.5 317.9 123.9 324.2 119.9 330.3 80.4 319.9 80.1 319.7 83.7 311.4 91.8 308.4 100.5 300.5 101.3 293.8 111.3 282.6 124.4 273.6 130.9 272.4 138.7 262.9 142 253.1 151.4 243.4 164.5 239.8 180.6 223.8 181 223.6 191.3 218.8 207.2 221 223.6 211.6 233.2 208.8 251 196.6 252.9 172.1 263.2 157.4 267.9 148 281.3 137.8 299.3 132.9 313 127.8 328.1 110.4 335.6 99.8 347.1 102.4 354.8 112.7 370 114.5 385.4 122.1ZM1044.1 405.7L972.8 412.2 903 416.5 830.5 418.8 829.4 347.2 828.3 278.2 823 262.6 827.2 250.5 824.4 242.2 830.4 232.8 852.4 231.9 868.6 236.6 885.3 241.7 893.2 244.4 905.8 237.6 912.3 231.7 926.8 229.2 938.8 230.9 944 240.3 947.4 233.7 961.1 237.3 974.2 237.3 981.9 231.7 993.8 259.2 995.9 264.1 991.8 272.3 989.5 287.2 985.7 297.7 982 301.4 975.8 295.7 967.4 287.7 953.2 260.8 951.6 262.6 960.1 282.6 972.1 301.3 987.7 330.3 995 340.3 1001.6 350.7 1019.4 370.6 1016.2 374.3 1018 386.8 1040.5 402.1ZM830.5 418.8L831.1 457.7 809.9 458 809.8 466.2 737.3 428.2 667.1 388.1 648.5 397.7 635.3 404.1 626 392.7 598.5 382.2 591.8 369.4 578.7 359.1 570.2 361.9 565 350.5 565.1 342.1 556.3 327 564 319.6 563.7 307.3 567 297 566.6 288 571.3 272.6 571.2 263.5 567.6 245.8 576.2 242.2 578.5 234.1 577.5 225.9 589.6 219.6 595.3 213.8 603.8 209 606 194.1 624.7 202.4 631.7 201.3 645.2 205.5 666.4 215.6 673.1 233.4 687.9 238 711 247.2 728.6 257.4 736.9 252.6 745.2 243.8 741.6 228.8 747 219.5 759.1 210.5 770.5 208 792.6 212.2 798.3 220.9 804.5 220.9 809.7 224.3 826.2 226.4 830.4 232.8 824.4 242.2 827.2 250.5 823 262.6 828.3 278.2 829.4 347.2ZM1291.4 649L1281.1 665 1013.5 665 1012.5 655.2 1016.6 633.7 1025.4 627.2 1026.7 618.9 1033.6 602.9 1044.4 591.9 1050.2 571.6 1051.6 554.3 1074.2 556.1 1078.5 540.7 1091.1 548.3 1101.7 542.3 1106.8 545.9 1119.9 544.4 1137.5 550 1143.3 556.1 1152.7 561.3 1162.3 571.7 1169.8 577.1 1164.3 586.8 1159.1 597 1161.4 602.3 1162.6 608.3 1173.5 607 1178 604.9 1182.9 607.8 1179.7 615.5 1188.6 625.3 1197.3 633.8 1206 639.7 1274.8 652.3ZM1169.8 577.1L1178.3 577.5 1183.3 571.8 1188.9 577.2 1189.5 585.5 1179.3 591.9 1188.4 596.1 1182.9 607.8 1178 604.9 1173.5 607 1162.6 608.3 1161.4 602.3 1159.1 597 1164.3 586.8ZM1300.8 577L1300.7 577.4 1302.3 585.5 1306.3 605.4 1308.4 615.7 1302 629.7 1291.4 649 1274.8 652.3 1206 639.7 1197.3 633.8 1188.6 625.3 1179.7 615.5 1182.9 607.8 1188.4 596.1 1195.3 598.7 1200.4 606.3 1210.5 613.2 1220.3 611.7 1237.8 603.5 1258.5 597.3 1274.4 588 1283.8 584.8 1289.9 579.9ZM728.1 12.2L715.2 4 709.9 -4.7 704.5 -9.5 702.5 -12 743.4 -12 741.9 -6.1 738.4 -5.2 735.6 -3.5 730.7 1.1ZM785.1 20L792.6 26.5 793.6 39.9 790.8 40.6 788.2 44.1 780 43.6 774.2 48 764.2 49.6 758 44.6 756.1 35.9 758.1 29.1 760 29.3 760.8 25.2 769.7 22.2 773 21.4 778.2 20.3ZM786.1 -12L787 -6.9 794.1 1.9 788.5 8.3 786 14.7 787.6 17.1 785.1 20 778.2 20.3 773 21.4 772.6 19.9 774.4 17.5 776.1 12.6 774 12.7 771.1 8.9 768.7 7.9 766.8 4.6 764 3.3 761.9 0.4 759.2 1.5 757.1 8.2 753.5 9.6 754.7 7.9 749.2 3.5 744.3 1.2 742.3 -1.6 738.4 -5.2 741.9 -6.1 743.4 -12ZM750.6 14.1L746.5 15.8 745.7 11.9 738.9 21.8 739.7 28.2 736.6 26.6 732.6 19.9 726.3 15.6 728.1 12.2 730.7 1.1 735.6 -3.5 738.4 -5.2 742.3 -1.6 744.3 1.2 749.2 3.5 754.7 7.9 753.5 9.6ZM758.1 29.1L757.2 21.7 753.7 19.6 750.6 14.1 753.5 9.6 757.1 8.2 759.2 1.5 761.9 0.4 764 3.3 766.8 4.6 768.7 7.9 771.1 8.9 774 12.7 776.1 12.6 774.4 17.5 772.6 19.9 773 21.4 769.7 22.2 760.8 25.2 760 29.3ZM828.6 665L830.1 659.6 835.4 650.1 849.6 647.1 853.1 652.6 863.7 664.1 866.9 665 870.5 665 876.3 662 890.7 662.2 892.6 665 913.5 665 913.9 661.2 923.9 656.9 925.7 650.9 933 646.4 950.3 657.2 960.4 654.5 969.3 639.3 979.3 627.6 976.8 615.7 971.7 610.2 983.4 608.3 984.4 603.8 993.5 604.4 992.3 619.4 995.8 633.6 1006.6 640.7 1009.5 647.4 1010 657.4 1012.8 657.6 1013.5 665Z"/>
<path id="c012" d="M253.5 248.1L254.7 244.6 255 243.3 260.4 220.9 290.5 213.4 307.5 214.3 322.1 212.2 330.5 204.1 351.3 200.6 354.9 186.6 364.7 186.9 373.5 181.3 395.3 182.2 399.7 175.3 396.2 170.4 394.5 149 395.8 137.1 392.3 123.6 409.4 115.9 427 115.7 438.3 109.4 454.4 106.1 481.5 106.9 507.6 109.1 515.1 113.1 530.9 107.3 547.7 109.3 553.5 114.6 564.4 114.6 560 124.4 560.4 143.3 554.9 159 543.7 168.7 543.3 183.5 555.3 196.6 555 201.4 564.2 210.3 567.6 245.8 571.2 263.5 571.3 272.6 566.6 288 567 297 563.7 307.3 564 319.6 556.3 327 565.1 342.1 565 350.5 570.2 361.9 578.7 359.1 591.8 369.4 598.5 382.2 533.6 413 476.5 444.7 449.6 449.7 429 448.6 430.7 436.2 422.8 431.8 412.4 424.5 409.5 414.8 356.9 362.3 306.6 308.8Z"/>
<path id="c262" d="M1169.8 577.1L1178.3 577.5 1183.3 571.8 1188.9 577.2 1189.5 585.5 1179.3 591.9 1188.4 596.1 1182.9 607.8 1178 604.9 1173.5 607 1162.6 608.3 1161.4 602.3 1159.1 597 1164.3 586.8Z"/>
<path id="c275" d="M1000.2 224.8L992.6 228.2 992.9 223 996.9 219.9 992.6 218.1 994.8 204.8 1001 207 1002.1 218.9Z"/>
<path id="c368" d="M1061.4 204.9L1051.9 182 1084.9 157.2 1087.7 132.8 1084.2 118.8 1092.1 112.7 1098.3 99.3 1104.5 95.2 1123 94.9 1129.3 99 1136.2 94.4 1150.3 115.9 1161.6 119.9 1164.8 131 1158.1 139.1 1157 154.9 1171.4 171.2 1193.1 178.1 1204.3 191.1 1204.2 205.5 1209.5 204.5 1211.7 214.6 1222.7 222.9 1212.8 223.9 1201.3 224.4 1192.5 245 1161.2 248.9 1108.2 217.7 1081.8 207.6Z"/>
<path id="c400" d="M1001 207L1003.3 200.6 1022.3 206.4 1051.9 182 1061.4 204.9 1058.6 208.2 1026.7 221.7 1045.4 239.2 1040.3 243.2 1038.3 249.9 1025.8 254 1022.5 261.4 1015.8 268.1 996.7 266.8 995.9 264.1 1001.4 232.3 1000.2 224.8 1002.1 218.9Z"/>
<path id="c414" d="M1212.8 223.9L1217.9 231.6 1217.2 236.3 1225.4 249.6 1213.7 252.4 1207.8 244.1 1192.5 245 1201.3 224.4Z"/>
<path id="c422" d="M1003.8 189.3L999.4 190 998.3 193.6 992.8 194.1 997.1 177.6 1003.8 163.1 1004 162.4 1011.3 162.7 1014.8 170 1006.7 178.3Z"/>
<path id="c434" d="M830.5 418.8L831.1 457.7 809.9 458 809.8 466.2 737.3 428.2 667.1 388.1 648.5 397.7 635.3 404.1 626 392.7 598.5 382.2 591.8 369.4 578.7 359.1 570.2 361.9 565 350.5 565.1 342.1 556.3 327 564 319.6 563.7 307.3 567 297 566.6 288 571.3 272.6 571.2 263.5 567.6 245.8 576.2 242.2 578.5 234.1 577.5 225.9 589.6 219.6 595.3 213.8 603.8 209 606 194.1 624.7 202.4 631.7 201.3 645.2 205.5 666.4 215.6 673.1 233.4 687.9 238 711 247.2 728.6 257.4 736.9 252.6 745.2 243.8 741.6 228.8 747 219.5 759.1 210.5 770.5 208 792.6 212.2 798.3 220.9 804.5 220.9 809.7 224.3 826.2 226.4 830.4 232.8 824.4 242.2 827.2 250.5 823 262.6 828.3 278.2 829.4 347.2Z"/>
<path id="c478" d="M76.9 327.3L82.6 322.3 150.6 342.8 155 314.8 161.9 306.4 178.6 309.2 191.2 261.2 246.3 276.6 253.5 248.1 306.6 308.8 280.3 303.2 270.1 387 260.3 471.4 263 474.5 255.8 487.1 181.6 469.6 177.7 473.2 170.9 470.1 159.5 471.1 148.1 462.4 142.1 461.2 135.9 471.6 128.8 473.4 120.3 456.9 113.2 439.8 102.6 431.3 95.6 423.2 85.4 420.4 75.4 421.8 67 417.4 58.8 421.5 60.5 410.9 68.4 403.2 76 386.3 79.9 367.2 80.6 357.2 85.3 348.5 83.5 338.2Z"/>
<path id="c504" d="M392.3 123.6L395.8 137.1 394.5 149 396.2 170.4 399.7 175.3 395.3 182.2 373.5 181.3 364.7 186.9 354.9 186.6 351.3 200.6 330.5 204.1 322.1 212.2 307.5 214.3 290.5 213.4 260.4 220.9 255 243.3 252.5 242.6 250.4 252.9 239.8 250.9 233.3 253.7 225.7 251.8 220.3 247.8 205.7 246 196.2 259.1 190.7 259.1 176.1 280.4 146.7 293.8 133.5 317.9 123.9 324.2 119.9 330.3 80.4 319.9 80.1 319.7 83.7 311.4 91.8 308.4 100.5 300.5 101.3 293.8 111.3 282.6 124.4 273.6 130.9 272.4 138.7 262.9 142 253.1 151.4 243.4 164.5 239.8 180.6 223.8 181 223.6 191.3 218.8 207.2 221 223.6 211.6 233.2 208.8 251 196.6 252.9 172.1 263.2 157.4 267.9 148 281.3 137.8 299.3 132.9 313 127.8 328.1 110.4 335.6 99.8 347.1 102.4 354.8 112.7 370 114.5 385.4 122.1Z"/>
<path id="c512" d="M1366.3 334.2L1364.8 326.5 1367.9 317.4 1366 309.7 1372.8 304 1369 302.2 1367.3 289.6 1376 287.2 1387.1 298 1398.5 302.3 1411.7 301.3 1422.8 301.9 1433.6 310.4 1440 315.3 1446.9 315.9 1448 320 1444.9 333 1443.7 339.1 1438 347.1 1435.1 361.8 1426.8 363.1 1424.4 368.6 1424.2 378.9 1429.8 390.9 1428.8 393.6 1420.5 395.8 1411.2 405.9 1411.9 415.6 1408.8 420.7 1397.5 423.4 1391.6 430 1393.7 437.7 1386.2 445.2 1375.7 445.9 1365 455.3 1356.8 458.4 1347.7 446.4 1326.3 418.1 1375.5 386.3 1377.7 345.5ZM1369.8 273L1365 267.4 1368.2 259.8 1370.7 260.8 1371.2 269Z"/>
<path id="c634" d="M1281 313.4L1276.9 299.8 1279.4 288.8 1283.6 285.8 1290.1 290.6 1292.8 301.6 1291.6 313.6 1287.1 316Z"/>
<path id="c682" d="M996.7 266.8L1015.8 268.1 1022.5 261.4 1025.8 254 1038.3 249.9 1040.3 243.2 1045.4 239.2 1026.7 221.7 1058.6 208.2 1061.4 204.9 1081.8 207.6 1108.2 217.7 1161.2 248.9 1192.5 245 1207.8 244.1 1213.7 252.4 1225.4 249.6 1235.3 264.7 1244.5 267.4 1248.7 273.4 1262 279 1264.6 286.6 1264.3 293.3 1267.8 299.3 1273.9 303.5 1277.5 309.3 1281 313.4 1287.1 316 1291.6 313.6 1296.5 320.1 1298.1 324.3 1309.1 342 1363.8 339.1 1366.3 334.2 1377.7 345.5 1375.5 386.3 1326.3 418.1 1275.6 436.6 1260.4 448.7 1251.1 471.4 1243.1 476.3 1237.2 470.7 1230.4 473 1212.1 474.2 1208.5 472.8 1187.2 476.9 1182.5 479.4 1174.1 475.6 1170.7 485.9 1173.8 493.8 1166.7 501.3 1162.9 493.4 1156.5 488.4 1153.9 480.8 1143.3 475.2 1131.2 460.4 1123.8 445.3 1109.4 433.7 1100.8 431.6 1086.5 414.7 1082.8 401.5 1082.2 390 1069.4 369.8 1060.2 363.3 1050.3 360.4 1043.2 349.9 1043.7 345.5 1037.8 336 1032.3 332.2 1024 318.6 1012 304 1002 291.6 993.5 292.5 995.2 281.6 995.3 274.8Z"/>
<path id="c706" d="M1281.1 665L1291.4 649 1302 629.7 1308.4 615.7 1306.3 605.4 1302.3 585.5 1300.7 577.4 1300.8 577 1306.9 575.4 1315.1 570.6 1324.9 566.5 1332.5 557.9 1339.7 556.3 1341.3 561.6 1342.1 573.3 1344.4 583.6 1341.9 591.6 1341 614.2 1336.3 638.3 1329.7 665Z"/>
<path id="c729" d="M804.5 665L805.5 662.4 805.3 654.1 793.9 641.6 791.7 633 791.9 628.1 784.7 622.2 784.6 610.6 780.5 602.9 773.7 604 775.7 596.7 780.8 588.4 778.6 580.2 785 574.1 781 569.5 786.1 557.3 794.8 542.8 811.2 544.1 809.8 466.2 809.9 458 831.1 457.7 830.5 418.8 903 416.5 972.8 412.2 1044.1 405.7 1052 424.1 1048.4 428 1053.2 447.7 1062.5 470.2 1070.1 474.2 1081 480.2 1072.9 492.4 1059.6 497.2 1054.3 503.8 1053.9 517 1048.7 546.7 1051.6 554.3 1050.2 571.6 1044.4 591.9 1033.6 602.9 1026.7 618.9 1025.4 627.2 1016.6 633.7 1012.5 655.2 1013.5 665 1012.8 657.6 1010 657.4 1009.5 647.4 1006.6 640.7 995.8 633.6 992.3 619.4 993.5 604.4 984.4 603.8 983.4 608.3 971.7 610.2 976.8 615.7 979.3 627.6 969.3 639.3 960.4 654.5 950.3 657.2 933 646.4 925.7 650.9 923.9 656.9 913.9 661.2 913.5 665 892.6 665 890.7 662.2 876.3 662 870.5 665 866.9 665 863.7 664.1 853.1 652.6 849.6 647.1 835.4 650.1 830.1 659.6 828.6 665Z"/>
<path id="c732" d="M255 243.3L254.7 244.6 253.5 248.1 246.3 276.6 191.2 261.2 178.6 309.2 161.9 306.4 155 314.8 150.6 342.8 82.6 322.3 76.9 327.3 80.1 319.7 80.4 319.9 119.9 330.3 123.9 324.2 133.5 317.9 146.7 293.8 176.1 280.4 190.7 259.1 196.2 259.1 205.7 246 220.3 247.8 225.7 251.8 233.3 253.7 239.8 250.9 250.4 252.9 252.5 242.6Z"/>
<path id="c760" d="M1003.3 200.6L1002.9 200.5 1004.8 197.3 1003.8 189.3 1006.7 178.3 1014.8 170 1011.3 162.7 1004 162.4 1001 147.6 1004.1 139.1 1007.9 134.4 1011.7 129.6 1011.4 118.6 1017 121.9 1033.7 114.4 1042.5 117.2 1055.4 115.5 1072.5 105.8 1080.9 104.9 1098.3 99.3 1092.1 112.7 1084.2 118.8 1087.7 132.8 1084.9 157.2 1051.9 182 1022.3 206.4Z"/>
<path id="c784" d="M1296.5 320.1L1299.3 318.5 1301.1 323.5 1314 317.5 1328.4 314.6 1338.9 312.7 1347.5 297 1357.2 281.8 1365 267.4 1369.8 273 1376 287.2 1367.3 289.6 1369 302.2 1372.8 304 1366 309.7 1367.9 317.4 1364.8 326.5 1366.3 334.2 1363.8 339.1 1309.1 342 1298.1 324.3Z"/>
<path id="c788" d="M567.6 245.8L564.2 210.3 555 201.4 555.3 196.6 543.3 183.5 543.7 168.7 554.9 159 560.4 143.3 560 124.4 564.4 114.6 582.3 108.5 593.1 112 591.6 121.9 605.7 116 606.5 119.8 597.7 128.8 596.7 137.8 601.7 143.2 598.1 160 586.5 168.8 588.5 179.7 596.9 180.8 600.1 190.5 606 194.1 603.8 209 595.3 213.8 589.6 219.6 577.5 225.9 578.5 234.1 576.2 242.2Z"/>
<path id="c818" d="M1044.1 405.7L972.8 412.2 903 416.5 830.5 418.8 829.4 347.2 828.3 278.2 823 262.6 827.2 250.5 824.4 242.2 830.4 232.8 852.4 231.9 868.6 236.6 885.3 241.7 893.2 244.4 905.8 237.6 912.3 231.7 926.8 229.2 938.8 230.9 944 240.3 947.4 233.7 961.1 237.3 974.2 237.3 981.9 231.7 993.8 259.2 995.9 264.1 991.8 272.3 989.5 287.2 985.7 297.7 982 301.4 975.8 295.7 967.4 287.7 953.2 260.8 951.6 262.6 960.1 282.6 972.1 301.3 987.7 330.3 995 340.3 1001.6 350.7 1019.4 370.6 1016.2 374.3 1018 386.8 1040.5 402.1Z"/>
<path id="c887" d="M1326.3 418.1L1347.7 446.4 1356.8 458.4 1344.7 466.6 1343.1 475.9 1344.2 482.6 1327.5 494.8 1299.5 510.2 1285.5 527.4 1277.4 530.1 1271.5 530.1 1261.9 540.3 1250.5 546.3 1234.7 550.2 1230.1 552.2 1226.9 558.1 1222.1 560.4 1220 565.8 1210.4 567 1204.7 570.7 1191.3 571.8 1184.5 561.1 1183.4 550.3 1179.3 545 1173.4 531.1 1166.7 523.9 1170.4 522.4 1167.1 513.7 1168.8 509.6 1166.7 501.3 1173.8 493.8 1170.7 485.9 1174.1 475.6 1182.5 479.4 1187.2 476.9 1208.5 472.8 1212.1 474.2 1230.4 473 1237.2 470.7 1243.1 476.3 1251.1 471.4 1260.4 448.7 1275.6 436.6Z"/>
</defs>
<rect class="bg" x="0" y="0" width="1600" height="863"/>
<text class="title" x="24" y="42">Arabic AI Atlas</text>
<text class="sub" x="24" y="66">Where Arabic AI is built · 6 entries · 2026-10-04</text>
<circle cx="1388.3" cy="61" r="6.5" fill="#4F46E5"/>
<text class="lg" x="1398.3" y="66">LLM</text>
<circle cx="1448.2" cy="61" r="6.5" fill="#0E7490"/>
<text class="lg" x="1458.2" y="66">TTS</text>
<circle cx="1508.1" cy="61" r="6.5" fill="#047857"/>
<text class="lg" x="1518.1" y="66">Dataset</text>
<text class="lg-h" x="1576" y="38" text-anchor="end">One bubble per entry type · click a country or bubble to open it on the live map</text>
<g transform="translate(0,76)">
<g clip-path="url(#frame)">
<rect class="sea" x="0" y="0" width="1600" height="653"/>
<path class="graticule" d="M-609.6 741.5L-587.9 700.3L-566.7 659.9L-545.9 620.2L-525.4 581.3L-505.3 543L-485.5 505.3L-466 468.1L-446.7 431.4L-427.7 395.1L-408.8 359.2L-390.2 323.7L-371.6 288.4L-353.3 253.4L-335 218.6L-316.8 184L-298.7 149.5L-280.6 115L-262.5 80.7L-244.5 46.3L-226.4 11.9L-208.3 -22.6L-190.1 -57.3L-171.8 -92.1L-153.4 -127.1L-134.9 -162.4L-116.2 -198L-97.2 -234.1L-78.1 -270.5L-58.7 -307.5L-38.9 -345.1L-18.8 -383.3L1.6 -422.3L22.6 -462.2L44 -503.1L66.1 -545M-506 793.4L-485.9 751.4L-466.3 710.2L-447 669.8L-428 630.1L-409.4 591L-391.1 552.6L-373 514.7L-355.1 477.3L-337.5 440.3L-320 403.7L-302.7 367.5L-285.6 331.5L-268.6 295.8L-251.6 260.4L-234.8 225.1L-218 189.9L-201.3 154.8L-184.5 119.7L-167.8 84.7L-151.1 49.6L-134.3 14.4L-117.4 -20.9L-100.5 -56.4L-83.5 -92.1L-66.3 -128.1L-49 -164.4L-31.4 -201.1L-13.7 -238.3L4.3 -276L22.6 -314.3L41.2 -353.3L60.1 -393L79.5 -433.7L99.4 -475.3L119.8 -518.1M-400.5 841.3L-382 798.5L-364 756.6L-346.3 715.5L-328.8 675.1L-311.7 635.4L-294.9 596.3L-278.3 557.7L-261.9 519.6L-245.6 482L-229.6 444.8L-213.7 407.9L-198 371.3L-182.3 335L-166.7 298.9L-151.3 263L-135.8 227.2L-120.5 191.5L-105.1 155.8L-89.7 120.1L-74.3 84.4L-58.9 48.6L-43.4 12.7L-27.9 -23.4L-12.2 -59.7L3.6 -96.4L19.5 -133.3L35.6 -170.7L51.9 -208.5L68.4 -246.9L85.2 -285.9L102.3 -325.5L119.7 -366L137.6 -407.4L155.8 -449.7L174.6 -493.3M-293.2 885.1L-276.4 841.6L-260 799.1L-243.8 757.3L-228 716.3L-212.4 675.9L-197.1 636.2L-181.9 597L-167 558.3L-152.3 520.1L-137.7 482.3L-123.2 444.8L-108.9 407.7L-94.6 370.8L-80.5 334.1L-66.4 297.6L-52.3 261.3L-38.3 225L-24.3 188.8L-10.3 152.5L3.7 116.3L17.7 79.9L31.8 43.4L45.9 6.7L60.2 -30.2L74.6 -67.4L89.1 -104.9L103.7 -142.9L118.5 -181.3L133.6 -220.3L148.9 -259.9L164.4 -300.2L180.3 -341.3L196.5 -383.3L213.1 -426.3L230.2 -470.6M-184.3 924.7L-169.2 880.7L-154.4 837.5L-139.9 795.2L-125.6 753.6L-111.6 712.6L-97.8 672.3L-84.2 632.6L-70.8 593.4L-57.5 554.6L-44.3 516.3L-31.3 478.3L-18.4 440.6L-5.6 403.2L7.1 366L19.8 329L32.5 292.1L45.1 255.4L57.6 218.6L70.2 181.9L82.8 145.1L95.5 108.2L108.1 71.2L120.9 34L133.7 -3.4L146.6 -41.1L159.7 -79.2L172.9 -117.7L186.2 -156.7L199.7 -196.2L213.5 -236.3L227.5 -277.2L241.8 -318.9L256.4 -361.5L271.3 -405.1L286.7 -450M-74 960.2L-60.6 915.6L-47.4 871.9L-34.6 829L-21.9 786.9L-9.5 745.5L2.8 704.7L14.8 664.4L26.8 624.7L38.5 585.5L50.2 546.7L61.8 508.2L73.2 470.1L84.6 432.2L95.9 394.5L107.1 357.1L118.3 319.7L129.5 282.5L140.7 245.3L151.9 208.1L163 170.9L174.3 133.5L185.5 96.1L196.8 58.4L208.2 20.5L219.7 -17.7L231.2 -56.2L242.9 -95.2L254.8 -134.6L266.8 -174.6L279 -215.3L291.4 -256.7L304.1 -298.9L317 -342L330.3 -386.2L343.9 -431.6M37.7 991.4L49.3 946.3L60.8 902.1L72 858.8L83 816.2L93.8 774.3L104.5 733.1L115 692.4L125.4 652.3L135.7 612.6L145.9 573.4L155.9 534.5L165.9 496L175.8 457.7L185.7 419.6L195.5 381.8L205.2 344L215 306.4L224.7 268.8L234.4 231.2L244.2 193.6L254 155.8L263.8 118L273.6 79.9L283.5 41.6L293.5 3L303.6 -36L313.8 -75.4L324.1 -115.2L334.6 -155.7L345.2 -196.8L356.1 -238.6L367.1 -281.2L378.4 -324.8L390 -369.5L401.8 -415.4M150.4 1018.3L160.3 972.8L170 928.2L179.6 884.4L189 841.5L198.2 799.2L207.3 757.6L216.2 716.6L225.1 676.1L233.8 636L242.5 596.4L251 557.2L259.5 518.3L268 479.7L276.3 441.3L284.7 403L293 365L301.3 327L309.6 289L317.9 251.1L326.1 213.1L334.5 175L342.8 136.8L351.2 98.4L359.6 59.7L368.1 20.8L376.7 -18.5L385.4 -58.3L394.2 -98.5L403.1 -139.3L412.1 -180.8L421.3 -223L430.7 -266.1L440.4 -310.1L450.2 -355.2L460.3 -401.5M264 1040.8L272.2 995L280.2 950L288.1 906L295.8 862.7L303.4 820.1L310.9 778.2L318.3 736.8L325.6 696L332.8 655.7L339.9 615.8L346.9 576.2L353.9 537L360.9 498.1L367.8 459.4L374.6 420.9L381.5 382.5L388.3 344.2L395.1 306L402 267.8L408.8 229.5L415.6 191.1L422.5 152.6L429.4 113.9L436.4 75L443.4 35.7L450.4 -3.9L457.6 -44L464.8 -84.5L472.1 -125.7L479.6 -167.4L487.2 -210L494.9 -253.3L502.8 -297.7L510.9 -343.1L519.3 -389.8M378.5 1059L384.9 1012.8L391.2 967.6L397.4 923.3L403.4 879.7L409.4 836.9L415.2 794.7L421 753.1L426.7 712.1L432.4 671.5L438 631.3L443.5 591.5L449 552.1L454.4 512.9L459.8 474L465.2 435.2L470.6 396.6L475.9 358.1L481.3 319.7L486.6 281.2L492 242.7L497.4 204.1L502.8 165.3L508.2 126.4L513.6 87.2L519.1 47.7L524.7 7.8L530.3 -32.4L535.9 -73.2L541.7 -114.6L547.5 -156.7L553.5 -199.4L559.5 -243.1L565.8 -287.7L572.1 -333.4L578.6 -380.4M493.6 1072.7L498.2 1026.4L502.7 981L507.2 936.4L511.6 892.7L515.9 849.6L520.1 807.2L524.3 765.5L528.4 724.2L532.5 683.4L536.6 643.1L540.6 603.1L544.5 563.5L548.5 524.2L552.4 485.1L556.3 446.1L560.2 407.3L564 368.7L567.9 330L571.8 291.4L575.7 252.7L579.5 213.9L583.4 175L587.4 135.9L591.3 96.5L595.3 56.8L599.3 16.8L603.3 -23.7L607.4 -64.7L611.6 -106.3L615.8 -148.5L620.1 -191.5L624.5 -235.3L629 -280.1L633.6 -326.1L638.3 -373.2M609.1 1082L611.9 1035.6L614.7 990L617.5 945.3L620.2 901.4L622.8 858.3L625.4 815.8L628 773.8L630.6 732.5L633.1 691.6L635.6 651.1L638 611L640.5 571.3L642.9 531.8L645.3 492.6L647.7 453.5L650.1 414.6L652.5 375.8L654.9 337L657.3 298.3L659.6 259.5L662 220.6L664.4 181.5L666.8 142.3L669.3 102.8L671.7 63L674.2 22.8L676.7 -17.8L679.2 -58.9L681.8 -100.6L684.4 -143L687 -186.1L689.7 -230.1L692.5 -275L695.3 -321.1L698.2 -368.4M724.8 1086.9L725.9 1040.4L727 994.8L728 950L729 906L730 862.8L731 820.2L731.9 778.2L732.9 736.8L733.8 695.8L734.8 655.3L735.7 615.1L736.6 575.3L737.5 535.8L738.4 496.5L739.3 457.4L740.2 418.4L741.1 379.5L742 340.7L742.9 301.9L743.8 263L744.7 224.1L745.6 185L746.5 145.7L747.4 106.1L748.3 66.2L749.3 26L750.2 -14.7L751.2 -55.9L752.1 -97.6L753.1 -140.1L754.1 -183.2L755.1 -227.3L756.1 -272.3L757.2 -318.5L758.3 -365.8M840.7 1087.4L840 1040.8L839.3 995.2L838.6 950.4L837.9 906.5L837.3 863.2L836.6 820.6L836 778.6L835.3 737.2L834.7 696.2L834.1 655.7L833.5 615.5L832.9 575.7L832.3 536.2L831.7 496.9L831.1 457.7L830.5 418.8L829.9 379.9L829.3 341.1L828.7 302.2L828.1 263.4L827.5 224.4L826.9 185.3L826.3 146L825.7 106.4L825 66.5L824.4 26.3L823.8 -14.4L823.2 -55.6L822.5 -97.4L821.9 -139.8L821.2 -183L820.5 -227L819.8 -272.1L819.1 -318.2L818.4 -365.6M956.5 1083.4L954 1036.9L951.6 991.3L949.2 946.6L946.8 902.7L944.5 859.5L942.2 817L939.9 775L937.7 733.6L935.5 692.7L933.3 652.2L931.2 612.1L929 572.4L926.9 532.9L924.8 493.6L922.7 454.6L920.6 415.6L918.5 376.8L916.4 338L914.4 299.3L912.3 260.4L910.2 221.5L908.1 182.5L906 143.2L903.8 103.7L901.7 63.9L899.5 23.7L897.4 -16.9L895.1 -58.1L892.9 -99.8L890.6 -142.2L888.3 -185.3L885.9 -229.3L883.5 -274.3L881 -320.4L878.5 -367.7M1072.1 1074.9L1067.8 1028.6L1063.6 983.1L1059.5 938.5L1055.5 894.8L1051.5 851.7L1047.6 809.3L1043.7 767.5L1039.9 726.2L1036.1 685.4L1032.4 645L1028.7 605L1025 565.4L1021.4 526L1017.8 486.8L1014.2 447.9L1010.6 409.1L1007 370.4L1003.4 331.7L999.9 293L996.3 254.3L992.7 215.5L989.1 176.5L985.5 137.4L981.9 98L978.2 58.3L974.5 18.2L970.8 -22.3L967 -63.3L963.1 -104.9L959.2 -147.2L955.2 -190.2L951.2 -234.1L947 -278.9L942.8 -324.9L938.4 -372.1M1187.3 1062.1L1181.2 1015.9L1175.3 970.6L1169.4 926.3L1163.7 882.7L1158.1 839.8L1152.6 797.5L1147.1 755.9L1141.7 714.8L1136.4 674.2L1131.1 634L1125.9 594.2L1120.7 554.7L1115.5 515.5L1110.4 476.5L1105.3 437.7L1100.3 399.1L1095.2 360.5L1090.1 322L1085.1 283.5L1080 244.9L1075 206.3L1069.9 167.5L1064.8 128.5L1059.6 89.3L1054.4 49.8L1049.2 9.9L1043.9 -30.5L1038.5 -71.3L1033.1 -112.7L1027.6 -154.8L1021.9 -197.6L1016.2 -241.3L1010.4 -286L1004.3 -331.7L998.2 -378.7M1301.9 1044.8L1294 998.9L1286.4 953.9L1278.8 909.8L1271.4 866.4L1264.2 823.8L1257 781.8L1250 740.4L1243 699.5L1236.1 659.1L1229.3 619.2L1222.5 579.6L1215.8 540.3L1209.2 501.3L1202.6 462.6L1196 424L1189.5 385.6L1182.9 347.3L1176.4 309L1169.9 270.7L1163.3 232.4L1156.8 194L1150.2 155.4L1143.6 116.6L1137 77.6L1130.3 38.3L1123.5 -1.3L1116.7 -41.5L1109.7 -82.1L1102.7 -123.2L1095.6 -165.1L1088.3 -207.7L1080.9 -251.1L1073.3 -295.5L1065.6 -341L1057.6 -387.7M1415.7 1023.1L1406.1 977.5L1396.7 932.9L1387.5 889.1L1378.5 846L1369.6 803.7L1360.8 762L1352.2 720.9L1343.6 680.4L1335.2 640.3L1326.9 600.6L1318.6 561.3L1310.4 522.3L1302.3 483.6L1294.2 445.2L1286.1 406.9L1278.1 368.7L1270.1 330.7L1262.1 292.7L1254.1 254.7L1246.1 216.6L1238.1 178.5L1230 140.2L1222 101.7L1213.8 63L1205.6 24L1197.3 -15.4L1189 -55.2L1180.5 -95.5L1171.9 -136.4L1163.1 -177.9L1154.3 -220.2L1145.2 -263.3L1135.9 -307.4L1126.4 -352.6L1116.7 -399M1528.6 997.1L1517.3 951.9L1506.2 907.7L1495.3 864.2L1484.6 821.6L1474.1 779.6L1463.7 738.3L1453.5 697.6L1443.5 657.4L1433.5 617.6L1423.6 578.3L1413.9 539.4L1404.2 500.7L1394.6 462.4L1385 424.2L1375.5 386.3L1366 348.5L1356.6 310.8L1347.1 273.1L1337.7 235.4L1328.2 197.7L1318.7 159.9L1309.2 122L1299.7 83.8L1290 45.5L1280.3 6.8L1270.6 -32.3L1260.7 -71.7L1250.7 -111.7L1240.5 -152.2L1230.2 -193.4L1219.7 -235.3L1209 -278L1198 -321.7L1186.8 -366.5L1175.3 -412.4M1640.5 966.8L1627.4 922.1L1614.6 878.3L1602.1 835.3L1589.8 793.1L1577.6 751.6L1565.7 710.7L1553.9 670.3L1542.3 630.6L1530.8 591.2L1519.5 552.3L1508.2 513.8L1497.1 475.5L1486 437.6L1475 399.8L1464 362.3L1453.1 324.9L1442.2 287.5L1431.3 250.3L1420.4 213L1409.5 175.7L1398.6 138.2L1387.7 100.7L1376.6 63L1365.5 25L1354.4 -13.3L1343.1 -51.9L1331.7 -91L1320.2 -130.5L1308.4 -170.6L1296.6 -211.4L1284.4 -252.8L1272.1 -295.1L1259.5 -338.4L1246.6 -382.7L1233.3 -428.2M1751.1 932.2L1736.3 888L1721.8 844.7L1707.7 802.3L1693.7 760.5L1680 719.5L1666.5 679.1L1653.2 639.3L1640.1 600L1627.1 561.1L1614.3 522.7L1601.5 484.6L1588.9 446.8L1576.4 409.3L1563.9 372L1551.5 334.9L1539.2 297.9L1526.9 261L1514.6 224.2L1502.3 187.4L1489.9 150.5L1477.6 113.5L1465.2 76.4L1452.7 39.1L1440.2 1.6L1427.6 -36.2L1414.8 -74.4L1401.9 -113L1388.9 -152L1375.6 -191.7L1362.2 -231.9L1348.5 -272.9L1334.5 -314.7L1320.3 -357.4L1305.7 -401.2L1290.6 -446.1M1860.2 893.4L1843.8 849.8L1827.7 807.1L1811.9 765.2L1796.4 724.1L1781.1 683.6L1766.1 643.7L1751.2 604.4L1736.6 565.7L1722.1 527.3L1707.8 489.4L1693.7 451.8L1679.6 414.6L1665.6 377.6L1651.8 340.8L1638 304.2L1624.2 267.7L1610.5 231.3L1596.8 195L1583.1 158.7L1569.3 122.3L1555.6 85.8L1541.8 49.2L1527.9 12.4L1513.9 -24.6L1499.8 -61.9L1485.6 -99.6L1471.3 -137.6L1456.7 -176.2L1442 -215.2L1427 -255L1411.8 -295.4L1396.2 -336.6L1380.3 -378.7L1364 -421.9L1347.3 -466.3M1967.9 850.4L1949.8 807.5L1932 765.4L1914.6 724.2L1897.5 683.6L1880.7 643.8L1864.2 604.6L1847.9 565.9L1831.7 527.7L1815.8 489.9L1800.1 452.6L1784.5 415.6L1769 378.9L1753.6 342.4L1738.3 306.2L1723.1 270.2L1708 234.2L1692.9 198.4L1677.8 162.6L1662.7 126.9L1647.6 91L1632.4 55.1L1617.2 19.1L1601.9 -17.1L1586.6 -53.6L1571.1 -90.3L1555.4 -127.4L1539.6 -164.9L1523.6 -202.9L1507.4 -241.4L1490.9 -280.5L1474.1 -320.3L1457 -360.9L1439.5 -402.4L1421.5 -444.9L1403.1 -488.6M2073.8 803.3L2054 761.1L2034.7 719.8L2015.7 679.2L1997.1 639.4L1978.8 600.2L1960.7 561.6L1942.9 523.6L1925.3 486L1908 448.9L1890.8 412.2L1873.8 375.8L1856.9 339.8L1840.2 303.9L1823.5 268.3L1806.9 232.9L1790.4 197.6L1773.9 162.4L1757.5 127.2L1741 92L1724.6 56.8L1708 21.5L1691.5 -13.9L1674.8 -49.5L1658 -85.4L1641.2 -121.5L1624.1 -158L1606.9 -194.8L1589.4 -232.1L1571.7 -270L1553.7 -308.4L1535.4 -347.5L1516.8 -387.4L1497.7 -428.2L1478.1 -470L1458 -513M2177.8 752.2L2156.4 710.8L2135.5 670.2L2115 630.4L2094.9 591.4L2075 552.9L2055.5 515L2036.3 477.7L2017.3 440.9L1998.5 404.4L1979.9 368.4L1961.5 332.7L1943.3 297.3L1925.2 262.2L1907.2 227.2L1889.2 192.5L1871.4 157.8L1853.6 123.2L1835.8 88.7L1818 54.2L1800.2 19.6L1782.3 -15L1764.4 -49.8L1746.4 -84.7L1728.3 -119.9L1710 -155.3L1691.6 -191.1L1672.9 -227.3L1654 -263.9L1634.9 -301L1615.5 -338.7L1595.7 -377.1L1575.5 -416.3L1554.8 -456.3L1533.7 -497.4L1512 -539.5M2279.7 697.1L2256.8 656.6L2234.4 616.9L2212.3 577.9L2190.7 539.6L2169.4 501.9L2148.5 464.8L2127.8 428.3L2107.4 392.2L2087.3 356.5L2067.3 321.2L2047.6 286.3L2028 251.6L2008.5 217.2L1989.2 182.9L1969.9 148.9L1950.8 114.9L1931.6 81.1L1912.5 47.3L1893.4 13.5L1874.3 -20.4L1855.1 -54.3L1835.9 -88.4L1816.6 -122.6L1797.1 -157.1L1777.5 -191.8L1757.7 -226.8L1737.7 -262.2L1717.4 -298.1L1696.9 -334.5L1676 -371.4L1654.7 -409L1633.1 -447.4L1610.9 -486.6L1588.2 -526.8L1564.9 -568.1M-609.6 741.5L-568.4 762.7L-526.9 783.3L-485 803.3L-442.9 822.6L-400.5 841.3L-357.7 859.3L-314.8 876.7L-271.5 893.4L-228 909.4L-184.3 924.7L-140.3 939.4L-96.1 953.4L-51.7 966.8L-7.1 979.4L37.7 991.4L82.6 1002.7L127.7 1013.2L173 1023.1L218.5 1032.3L264 1040.8L309.7 1048.6L355.5 1055.7L401.5 1062.1L447.5 1067.7L493.6 1072.7L539.7 1077L585.9 1080.5L632.2 1083.4L678.5 1085.5L724.8 1086.9L771.2 1087.7L817.5 1087.7L863.9 1086.9L910.2 1085.5L956.5 1083.4L1002.8 1080.5L1049 1077L1095.2 1072.7L1141.3 1067.7L1187.3 1062.1L1233.2 1055.7L1279 1048.6L1324.7 1040.8L1370.3 1032.3L1415.7 1023.1L1461 1013.2L1506.1 1002.7L1551.1 991.4L1595.9 979.4L1640.5 966.8L1684.9 953.4L1729 939.4L1773 924.7L1816.8 909.4L1860.2 893.4L1903.5 876.7L1946.5 859.3L1989.2 841.3L2031.6 822.6L2073.8 803.3L2115.6 783.3L2157.1 762.7L2198.3 741.5L2239.2 719.6L2279.7 697.1M-556.3 640L-516.6 660.4L-476.7 680.2L-436.4 699.4L-395.9 718L-355.1 736L-314 753.3L-272.6 770L-231 786L-189.2 801.5L-147.1 816.2L-104.8 830.4L-62.3 843.9L-19.6 856.7L23.3 868.8L66.4 880.3L109.7 891.2L153.1 901.4L196.6 910.9L240.3 919.7L284.2 927.9L328.1 935.4L372.2 942.2L416.4 948.4L460.6 953.8L505 958.6L549.4 962.7L593.8 966.1L638.4 968.9L682.9 970.9L727.5 972.3L772.1 973L816.7 973L861.3 972.3L905.8 970.9L950.4 968.9L994.9 966.1L1039.3 962.7L1083.8 958.6L1128.1 953.8L1172.3 948.4L1216.5 942.2L1260.6 935.4L1304.5 927.9L1348.4 919.7L1392.1 910.9L1435.7 901.4L1479.1 891.2L1522.3 880.3L1565.4 868.8L1608.3 856.7L1651 843.9L1693.5 830.4L1735.8 816.2L1777.9 801.5L1819.8 786L1861.4 770L1902.7 753.3L1943.8 736L1984.6 718L2025.2 699.4L2065.4 680.2L2105.4 660.4L2145 640L2184.3 618.9L2223.3 597.3M-505.3 543L-467.2 562.7L-428.8 581.7L-390 600.2L-351 618.1L-311.7 635.4L-272.2 652.1L-232.4 668.1L-192.4 683.6L-152.1 698.4L-111.6 712.6L-70.9 726.2L-30 739.2L11.1 751.6L52.4 763.3L93.8 774.3L135.5 784.8L177.2 794.6L219.2 803.7L261.2 812.2L303.4 820.1L345.7 827.3L388.1 833.9L430.6 839.8L473.2 845L515.9 849.6L558.6 853.6L601.4 856.9L644.2 859.5L687.1 861.5L730 862.8L772.9 863.5L815.8 863.5L858.7 862.8L901.6 861.5L944.5 859.5L987.3 856.9L1030.1 853.6L1072.8 849.6L1115.5 845L1158.1 839.8L1200.6 833.9L1243 827.3L1285.3 820.1L1327.5 812.2L1369.6 803.7L1411.5 794.6L1453.3 784.8L1494.9 774.3L1536.4 763.3L1577.6 751.6L1618.7 739.2L1659.6 726.2L1700.3 712.6L1740.8 698.4L1781.1 683.6L1821.1 668.1L1860.9 652.1L1900.5 635.4L1939.7 618.1L1978.8 600.2L2017.5 581.7L2055.9 562.7L2094.1 543L2131.9 522.8L2169.4 501.9M-456.3 449.7L-419.6 468.6L-382.6 487L-345.4 504.8L-307.8 522L-270 538.6L-232 554.6L-193.7 570.1L-155.2 585L-116.4 599.3L-77.5 613L-38.3 626L1.1 638.5L40.6 650.4L80.4 661.7L120.2 672.3L160.3 682.4L200.5 691.8L240.9 700.6L281.3 708.8L321.9 716.3L362.6 723.3L403.4 729.6L444.3 735.3L485.3 740.3L526.4 744.8L567.5 748.6L608.7 751.7L649.9 754.3L691.2 756.2L732.4 757.4L773.7 758.1L815 758.1L856.3 757.4L897.6 756.2L938.8 754.3L980 751.7L1021.2 748.6L1062.3 744.8L1103.4 740.3L1144.4 735.3L1185.3 729.6L1226.1 723.3L1266.8 716.3L1307.4 708.8L1347.9 700.6L1388.2 691.8L1428.4 682.4L1468.5 672.3L1508.4 661.7L1548.1 650.4L1587.7 638.5L1627 626L1666.2 613L1705.2 599.3L1743.9 585L1782.4 570.1L1820.7 554.6L1858.8 538.6L1896.6 522L1934.1 504.8L1971.4 487L2008.4 468.6L2045.1 449.7L2081.5 430.2L2117.6 410.2M-408.8 359.2L-373.5 377.4L-337.9 395.1L-302.1 412.2L-266 428.8L-229.6 444.8L-193 460.2L-156.2 475.1L-119.1 489.4L-81.8 503.1L-44.3 516.3L-6.7 528.9L31.2 540.9L69.3 552.3L107.5 563.1L145.9 573.4L184.4 583.1L223.1 592.1L261.9 600.6L300.8 608.5L339.9 615.8L379 622.4L418.3 628.5L457.6 634L497.1 638.8L536.6 643.1L576.1 646.8L615.7 649.8L655.4 652.2L695.1 654.1L734.8 655.3L774.5 655.9L814.2 655.9L854 655.3L893.7 654.1L933.3 652.2L973 649.8L1012.6 646.8L1052.2 643.1L1091.7 638.8L1131.1 634L1170.4 628.5L1209.7 622.4L1248.9 615.8L1287.9 608.5L1326.9 600.6L1365.7 592.1L1404.3 583.1L1442.9 573.4L1481.3 563.1L1519.5 552.3L1557.5 540.9L1595.4 528.9L1633.1 516.3L1670.6 503.1L1707.8 489.4L1744.9 475.1L1781.7 460.2L1818.3 444.8L1854.7 428.8L1890.8 412.2L1926.7 395.1L1962.3 377.4L1997.6 359.2L2032.6 340.5L2067.3 321.2M-362.4 270.9L-328.5 288.4L-294.3 305.4L-259.8 321.8L-225.1 337.7L-190.1 353.1L-154.9 368L-119.5 382.3L-83.9 396L-48 409.2L-12 421.9L24.2 434L60.6 445.5L97.2 456.5L134 466.9L170.9 476.8L207.9 486.1L245.1 494.8L282.4 502.9L319.9 510.5L357.4 517.5L395.1 523.9L432.8 529.8L470.6 535L508.5 539.7L546.5 543.8L584.5 547.3L622.6 550.3L660.7 552.6L698.9 554.4L737.1 555.5L775.3 556.1L813.5 556.1L851.7 555.5L889.8 554.4L928 552.6L966.1 550.3L1004.2 547.3L1042.2 543.8L1080.2 539.7L1118.1 535L1155.9 529.8L1193.7 523.9L1231.3 517.5L1268.9 510.5L1306.3 502.9L1343.6 494.8L1380.8 486.1L1417.9 476.8L1454.8 466.9L1491.5 456.5L1528.1 445.5L1564.5 434L1600.7 421.9L1636.8 409.2L1672.6 396L1708.2 382.3L1743.7 368L1778.8 353.1L1813.8 337.7L1848.5 321.8L1883 305.4L1917.2 288.4L1951.2 270.9L1984.8 252.9L2018.2 234.3M-316.8 184L-284.2 200.8L-251.3 217.1L-218.2 232.9L-184.9 248.2L-151.3 263L-117.5 277.2L-83.4 291L-49.2 304.2L-14.8 316.9L19.8 329L54.6 340.6L89.6 351.7L124.7 362.3L160 372.3L195.5 381.8L231.1 390.7L266.8 399.1L302.6 406.9L338.6 414.2L374.6 420.9L410.8 427L447.1 432.6L483.4 437.7L519.8 442.2L556.3 446.1L592.8 449.5L629.4 452.3L666 454.6L702.7 456.3L739.3 457.4L776 457.9L812.7 457.9L849.4 457.4L886.1 456.3L922.7 454.6L959.3 452.3L995.9 449.5L1032.4 446.1L1068.9 442.2L1105.3 437.7L1141.7 432.6L1177.9 427L1214.1 420.9L1250.2 414.2L1286.1 406.9L1322 399.1L1357.7 390.7L1393.3 381.8L1428.7 372.3L1464 362.3L1499.1 351.7L1534.1 340.6L1568.9 329L1603.5 316.9L1638 304.2L1672.2 291L1706.2 277.2L1740 263L1773.6 248.2L1806.9 232.9L1840 217.1L1872.9 200.8L1905.5 184L1937.9 166.7L1969.9 148.9M-271.6 97.9L-240.3 114L-208.7 129.6L-177 144.8L-145 159.4L-112.8 173.6L-80.3 187.3L-47.7 200.5L-14.9 213.2L18.1 225.3L51.3 237L84.7 248.1L118.3 258.8L152 268.9L185.8 278.5L219.8 287.6L254 296.1L288.2 304.2L322.6 311.7L357.1 318.7L391.7 325.1L426.4 331L461.2 336.4L496.1 341.2L531 345.6L566 349.3L601 352.6L636.1 355.3L671.2 357.4L706.4 359L741.6 360.1L776.8 360.7L812 360.7L847.2 360.1L882.3 359L917.5 357.4L952.6 355.3L987.7 352.6L1022.8 349.3L1057.7 345.6L1092.7 341.2L1127.5 336.4L1162.3 331L1197 325.1L1231.6 318.7L1266.1 311.7L1300.5 304.2L1334.7 296.1L1368.9 287.6L1402.9 278.5L1436.7 268.9L1470.5 258.8L1504 248.1L1537.4 237L1570.6 225.3L1603.6 213.2L1636.4 200.5L1669.1 187.3L1701.5 173.6L1733.7 159.4L1765.7 144.8L1797.5 129.6L1829 114L1860.3 97.9L1891.3 81.3L1922.1 64.2M-226.4 11.9L-196.4 27.3L-166.2 42.3L-135.8 56.8L-105.2 70.8L-74.3 84.4L-43.3 97.5L-12 110.1L19.4 122.3L51 133.9L82.8 145.1L114.8 155.8L146.9 166L179.2 175.7L211.6 184.9L244.2 193.6L276.9 201.7L309.7 209.4L342.6 216.6L375.7 223.3L408.8 229.5L442 235.1L475.3 240.3L508.7 244.9L542.1 249.1L575.7 252.7L609.2 255.8L642.8 258.4L676.5 260.4L710.1 262L743.8 263L777.5 263.5L811.2 263.5L844.9 263L878.6 262L912.3 260.4L945.9 258.4L979.5 255.8L1013.1 252.7L1046.6 249.1L1080 244.9L1113.4 240.3L1146.7 235.1L1179.9 229.5L1213.1 223.3L1246.1 216.6L1279 209.4L1311.9 201.7L1344.5 193.6L1377.1 184.9L1409.5 175.7L1441.8 166L1473.9 155.8L1505.9 145.1L1537.7 133.9L1569.3 122.3L1600.8 110.1L1632 97.5L1663.1 84.4L1693.9 70.8L1724.6 56.8L1755 42.3L1785.2 27.3L1815.1 11.9L1844.8 -4L1874.3 -20.4M-181 -74.6L-152.3 -59.9L-123.5 -45.6L-94.4 -31.7L-65.1 -18.3L-35.7 -5.3L-6 7.2L23.9 19.3L53.9 30.8L84.1 42L114.5 52.7L145 62.9L175.7 72.6L206.6 81.9L237.6 90.6L268.7 98.9L299.9 106.8L331.3 114.1L362.7 121L394.3 127.4L425.9 133.3L457.7 138.7L489.5 143.6L521.4 148.1L553.4 152L585.4 155.5L617.5 158.4L649.6 160.9L681.7 162.9L713.9 164.3L746.1 165.3L778.3 165.8L810.5 165.8L842.7 165.3L874.9 164.3L907 162.9L939.2 160.9L971.3 158.4L1003.3 155.5L1035.4 152L1067.3 148.1L1099.2 143.6L1131 138.7L1162.8 133.3L1194.4 127.4L1226 121L1257.5 114.1L1288.8 106.8L1320.1 98.9L1351.2 90.6L1382.1 81.9L1413 72.6L1443.7 62.9L1474.2 52.7L1504.6 42L1534.8 30.8L1564.9 19.3L1594.7 7.2L1624.4 -5.3L1653.9 -18.3L1683.2 -31.7L1712.2 -45.6L1741.1 -59.9L1769.7 -74.6L1798.1 -89.8L1826.2 -105.5M-134.9 -162.4L-107.6 -148.4L-80.1 -134.7L-52.4 -121.5L-24.5 -108.7L3.6 -96.4L31.8 -84.4L60.3 -72.9L88.9 -61.9L117.7 -51.3L146.6 -41.1L175.7 -31.4L205 -22.1L234.4 -13.3L263.9 -4.9L293.5 3L323.3 10.4L353.2 17.4L383.1 24L413.2 30.1L443.4 35.7L473.6 40.9L503.9 45.5L534.3 49.8L564.8 53.5L595.3 56.8L625.8 59.6L656.4 62L687 63.9L717.7 65.3L748.3 66.2L779 66.7L809.7 66.7L840.4 66.2L871.1 65.3L901.7 63.9L932.3 62L962.9 59.6L993.5 56.8L1024 53.5L1054.4 49.8L1084.8 45.5L1115.1 40.9L1145.4 35.7L1175.5 30.1L1205.6 24L1235.6 17.4L1265.5 10.4L1295.2 3L1324.9 -4.9L1354.4 -13.3L1383.8 -22.1L1413 -31.4L1442.1 -41.1L1471.1 -51.3L1499.8 -61.9L1528.5 -72.9L1556.9 -84.4L1585.2 -96.4L1613.3 -108.7L1641.2 -121.5L1668.8 -134.7L1696.3 -148.4L1723.6 -162.4L1750.7 -176.9L1777.5 -191.8M-87.7 -252.2L-61.8 -238.9L-35.7 -225.9L-9.4 -213.4L17 -201.3L43.7 -189.5L70.5 -178.2L97.5 -167.3L124.7 -156.8L152 -146.8L179.5 -137.1L207.1 -127.9L234.9 -119.1L262.8 -110.7L290.8 -102.8L318.9 -95.2L347.2 -88.2L375.6 -81.5L404 -75.3L432.5 -69.5L461.2 -64.2L489.9 -59.3L518.7 -54.8L547.5 -50.8L576.4 -47.3L605.4 -44.1L634.4 -41.5L663.4 -39.2L692.5 -37.4L721.6 -36.1L750.7 -35.2L779.8 -34.8L808.9 -34.8L838 -35.2L867.2 -36.1L896.3 -37.4L925.3 -39.2L954.4 -41.5L983.4 -44.1L1012.3 -47.3L1041.2 -50.8L1070.1 -54.8L1098.8 -59.3L1127.6 -64.2L1156.2 -69.5L1184.7 -75.3L1213.2 -81.5L1241.5 -88.2L1269.8 -95.2L1297.9 -102.8L1325.9 -110.7L1353.8 -119.1L1381.6 -127.9L1409.2 -137.1L1436.7 -146.8L1464 -156.8L1491.2 -167.3L1518.2 -178.2L1545 -189.5L1571.7 -201.3L1598.2 -213.4L1624.4 -225.9L1650.5 -238.9L1676.4 -252.2L1702.1 -266L1727.6 -280.1M-38.9 -345.1L-14.5 -332.5L10.2 -320.3L35 -308.4L60 -296.9L85.2 -285.9L110.6 -275.2L136.1 -264.9L161.7 -255L187.5 -245.4L213.5 -236.3L239.6 -227.6L265.8 -219.3L292.2 -211.4L318.6 -203.9L345.2 -196.8L371.9 -190.1L398.7 -183.8L425.6 -177.9L452.6 -172.5L479.6 -167.4L506.7 -162.8L533.9 -158.6L561.2 -154.8L588.5 -151.4L615.8 -148.5L643.2 -146L670.7 -143.9L698.1 -142.2L725.6 -140.9L753.1 -140.1L780.6 -139.6L808.1 -139.6L835.6 -140.1L863.1 -140.9L890.6 -142.2L918.1 -143.9L945.5 -146L972.9 -148.5L1000.3 -151.4L1027.6 -154.8L1054.8 -158.6L1082 -162.8L1109.1 -167.4L1136.2 -172.5L1163.1 -177.9L1190 -183.8L1216.8 -190.1L1243.5 -196.8L1270.1 -203.9L1296.6 -211.4L1322.9 -219.3L1349.1 -227.6L1375.2 -236.3L1401.2 -245.4L1427 -255L1452.7 -264.9L1478.2 -275.2L1503.5 -285.9L1528.7 -296.9L1553.7 -308.4L1578.6 -320.3L1603.2 -332.5L1627.7 -345.1L1651.9 -358.1L1676 -371.4M12.1 -442.2L35 -430.3L58.2 -418.8L81.5 -407.7L104.9 -397L128.6 -386.6L152.4 -376.5L176.3 -366.8L200.4 -357.5L224.7 -348.6L249 -340.1L273.5 -331.9L298.2 -324.1L322.9 -316.6L347.8 -309.6L372.7 -302.9L397.8 -296.6L422.9 -290.7L448.1 -285.2L473.5 -280.1L498.9 -275.4L524.3 -271L549.8 -267.1L575.4 -263.5L601.1 -260.4L626.7 -257.6L652.5 -255.2L678.2 -253.2L704 -251.7L729.8 -250.5L755.6 -249.7L781.5 -249.3L807.3 -249.3L833.1 -249.7L858.9 -250.5L884.7 -251.7L910.5 -253.2L936.3 -255.2L962 -257.6L987.7 -260.4L1013.3 -263.5L1038.9 -267.1L1064.4 -271L1089.9 -275.4L1115.3 -280.1L1140.6 -285.2L1165.8 -290.7L1191 -296.6L1216 -302.9L1241 -309.6L1265.8 -316.6L1290.6 -324.1L1315.2 -331.9L1339.7 -340.1L1364.1 -348.6L1388.3 -357.5L1412.4 -366.8L1436.3 -376.5L1460.1 -386.6L1483.8 -397L1507.3 -407.7L1530.6 -418.8L1553.7 -430.3L1576.7 -442.2L1599.5 -454.3L1622 -466.9M66.1 -545L87.5 -534L109 -523.3L130.7 -513L152.6 -503L174.6 -493.3L196.7 -483.9L219 -474.9L241.5 -466.3L264 -458L286.7 -450L309.5 -442.4L332.4 -435.1L355.5 -428.2L378.6 -421.6L401.8 -415.4L425.2 -409.6L448.6 -404.1L472.1 -399L495.6 -394.2L519.3 -389.8L543 -385.7L566.7 -382.1L590.6 -378.7L614.4 -375.8L638.3 -373.2L662.3 -371L686.2 -369.2L710.2 -367.7L734.3 -366.6L758.3 -365.8L782.3 -365.5L806.4 -365.5L830.4 -365.8L854.5 -366.6L878.5 -367.7L902.5 -369.2L926.5 -371L950.4 -373.2L974.3 -375.8L998.2 -378.7L1022 -382.1L1045.8 -385.7L1069.5 -389.8L1093.1 -394.2L1116.7 -399L1140.2 -404.1L1163.6 -409.6L1186.9 -415.4L1210.1 -421.6L1233.3 -428.2L1256.3 -435.1L1279.2 -442.4L1302 -450L1324.7 -458L1347.3 -466.3L1369.7 -474.9L1392 -483.9L1414.2 -493.3L1436.2 -503L1458 -513L1479.7 -523.3L1501.3 -534L1522.6 -545L1543.8 -556.4L1564.9 -568.1"/>
<use href="#land" class="wl wl-0"/>
<use href="#land" class="wl wl-1"/>
<use href="#land" class="wl wl-2"/>
<use href="#land" class="wl wl-3"/>
<use href="#land" class="land"/>
<use href="#land" class="borders-foreign"/>
<use href="#c012" class="unlisted" data-code="DZ"/>
<use href="#c262" class="unlisted" data-code="DJ"/>
<use href="#c275" class="unlisted" data-code="PS"/>
<use href="#c368" class="unlisted" data-code="IQ"/>
<use href="#c400" class="s-none" data-code="JO"/>
<use href="#c414" class="s-none" data-code="KW"/>
<use href="#c422" class="s-none" data-code="LB"/>
<use href="#c434" class="unlisted" data-code="LY"/>
<use href="#c478" class="unlisted" data-code="MR"/>
<use href="#c504" class="s-none" data-code="MA"/>
<use href="#c512" class="s-none" data-code="OM"/>
<use href="#c634" class="s-none" data-code="QA"/>
<use href="#c682" class="s4" data-code="SA"/>
<use href="#c706" class="unlisted" data-code="SO"/>
<use href="#c729" class="unlisted" data-code="SD"/>
<use href="#c732" class="unlisted" data-code="EH"/>
<use href="#c760" class="unlisted" data-code="SY"/>
<use href="#c784" class="s3" data-code="AE"/>
<use href="#c788" class="s-none" data-code="TN"/>
<use href="#c818" class="s-none" data-code="EG"/>
<use href="#c887" class="unlisted" data-code="YE"/>
<g class="borders-arab">
<use href="#c012"/>
<use href="#c262"/>
<use href="#c275"/>
<use href="#c368"/>
<use href="#c400"/>
<use href="#c414"/>
<use href="#c422"/>
<use href="#c434"/>
<use href="#c478"/>
<use href="#c504"/>
<use href="#c512"/>
<use href="#c634"/>
<use href="#c682"/>
<use href="#c706"/>
<use href="#c729"/>
<use href="#c732"/>
<use href="#c760"/>
<use href="#c784"/>
<use href="#c788"/>
<use href="#c818"/>
<use href="#c887"/>
</g>
<circle class="pt s-none" cx="1271.3" cy="289.7" r="3"/>
<text class="ghost" x="446.5" y="271.3" text-anchor="middle" lang="ar">الجزائر</text>
<text class="ghost" x="1130.9" y="178.4" text-anchor="middle" lang="ar">العراق</text>
<text class="ghost" x="701" y="320" text-anchor="middle" lang="ar">ليبيا</text>
<text class="ghost" x="927.1" y="536.8" text-anchor="middle" lang="ar">السودان</text>
<text class="ghost" x="1044.7" y="148.9" text-anchor="middle" lang="ar">سوريا</text>
<text class="ghost" x="1258.8" y="498.4" text-anchor="middle" lang="ar">اليمن</text>
</g>
<g class="mark" data-code="BH">
<line class="leader" x1="1271.3" y1="289.7" x2="1236.4" y2="186.8"/>
<circle class="leader-dot" cx="1271.3" cy="289.7" r="2.4"/>
<a href="https://h9-tec.github.io/arabic-ai-atlas/#country=BH" target="_blank" rel="noopener">
<title>Bahrain, 0 entries</title>
<text class="halo l-ar" x="1245.4" y="183.5" text-anchor="start" lang="ar">البحرين</text>
<text class="halo l-en" x="1245.4" y="202.5" text-anchor="start">Bahrain</text>
<text class="halo l-n empty" x="1245.4" y="220.5" text-anchor="start">no entries yet</text>
</a>
</g>
<g class="mark" data-code="EG">
<a href="https://h9-tec.github.io/arabic-ai-atlas/#country=EG" target="_blank" rel="noopener">
<title>Egypt, 0 entries</title>
<text class="halo l-ar" x="909.1" y="358.3" text-anchor="middle" lang="ar">مصر</text>
<text class="halo l-en" x="909.1" y="377.3" text-anchor="middle">Egypt</text>
<text class="halo l-n empty" x="909.1" y="395.3" text-anchor="middle">no entries yet</text>
</a>
</g>
<g class="mark" data-code="JO">
<a href="https://h9-tec.github.io/arabic-ai-atlas/#country=JO" target="_blank" rel="noopener">
<title>Jordan, 0 entries</title>
<text class="halo l-ar" x="1023" y="261.8" text-anchor="middle" lang="ar">الأردن</text>
<text class="halo l-en" x="1023" y="280.8" text-anchor="middle">Jordan</text>
<text class="halo l-n empty" x="1023" y="298.8" text-anchor="middle">no entries yet</text>
</a>
</g>
<g class="mark" data-code="KW">
<line class="leader" x1="1209" y1="238" x2="1205.5" y2="117.2"/>
<circle class="leader-dot" cx="1209" cy="238" r="2.4"/>
<a href="https://h9-tec.github.io/arabic-ai-atlas/#country=KW" target="_blank" rel="noopener">
<title>Kuwait, 0 entries</title>
<text class="halo l-ar" x="1214.5" y="113.9" text-anchor="start" lang="ar">الكويت</text>
<text class="halo l-en" x="1214.5" y="132.9" text-anchor="start">Kuwait</text>
<text class="halo l-n empty" x="1214.5" y="150.9" text-anchor="start">no entries yet</text>
</a>
</g>
<g class="mark" data-code="LB">
<line class="leader" x1="1003.9" y1="177.1" x2="926.2" y2="159.8"/>
<circle class="leader-dot" cx="1003.9" cy="177.1" r="2.4"/>
<a href="https://h9-tec.github.io/arabic-ai-atlas/#country=LB" target="_blank" rel="noopener">
<title>Lebanon, 0 entries</title>
<text class="halo l-ar" x="917.2" y="156.5" text-anchor="end" lang="ar">لبنان</text>
<text class="halo l-en" x="917.2" y="175.5" text-anchor="end">Lebanon</text>
<text class="halo l-n empty" x="917.2" y="193.5" text-anchor="end">no entries yet</text>
</a>
</g>
<g class="mark" data-code="MA">
<a href="https://h9-tec.github.io/arabic-ai-atlas/#country=MA" target="_blank" rel="noopener">
<title>Morocco, 0 entries</title>
<text class="halo l-ar" x="313" y="199.9" text-anchor="middle" lang="ar">المغرب</text>
<text class="halo l-en" x="313" y="218.9" text-anchor="middle">Morocco</text>
<text class="halo l-n empty" x="313" y="236.9" text-anchor="middle">no entries yet</text>
</a>
</g>
<g class="mark" data-code="OM">
<a href="https://h9-tec.github.io/arabic-ai-atlas/#country=OM" target="_blank" rel="noopener">
<title>Oman, 0 entries</title>
<text class="halo l-ar" x="1400.9" y="395.4" text-anchor="middle" lang="ar">عُمان</text>
<text class="halo l-en" x="1400.9" y="414.4" text-anchor="middle">Oman</text>
<text class="halo l-n empty" x="1400.9" y="432.4" text-anchor="middle">no entries yet</text>
</a>
</g>
<g class="mark" data-code="QA">
<line class="leader" x1="1285.5" y1="301.5" x2="1323" y2="110.4"/>
<circle class="leader-dot" cx="1285.5" cy="301.5" r="2.4"/>
<a href="https://h9-tec.github.io/arabic-ai-atlas/#country=QA" target="_blank" rel="noopener">
<title>Qatar, 0 entries</title>
<text class="halo l-ar" x="1332" y="107.1" text-anchor="start" lang="ar">قطر</text>
<text class="halo l-en" x="1332" y="126.1" text-anchor="start">Qatar</text>
<text class="halo l-n empty" x="1332" y="144.1" text-anchor="start">no entries yet</text>
</a>
</g>
<g class="mark" data-code="TN">
<a href="https://h9-tec.github.io/arabic-ai-atlas/#country=TN" target="_blank" rel="noopener">
<title>Tunisia, 0 entries</title>
<text class="halo l-ar" x="573.5" y="203.6" text-anchor="middle" lang="ar">تونس</text>
<text class="halo l-en" x="573.5" y="222.6" text-anchor="middle">Tunisia</text>
<text class="halo l-n empty" x="573.5" y="240.6" text-anchor="middle">no entries yet</text>
</a>
</g>
<g class="mark" data-code="AE">
<line class="leader" x1="1345.4" y1="317.5" x2="1387.6" y2="210.2"/>
<circle class="leader-dot" cx="1345.4" cy="317.5" r="2.4"/>
<a href="https://h9-tec.github.io/arabic-ai-atlas/#country=AE&amp;type=llm" target="_blank" rel="noopener"><title>UAE · LLM · 1 entry · 100 downloads · most downloaded: Jais 30B (100)</title><circle class="bubble" cx="1387.6" cy="210.2" r="10.5" fill="#4F46E5"/></a>
<a href="https://h9-tec.github.io/arabic-ai-atlas/#country=AE" target="_blank" rel="noopener">
<title>UAE, 1 entry</title>
<text class="halo l-ar" x="1387.6" y="244.4" text-anchor="middle" lang="ar">الإمارات</text>
<text class="halo l-en" x="1387.6" y="263.4" text-anchor="middle">UAE</text>
<text class="halo l-n" x="1387.6" y="281.4" text-anchor="middle">1 entry</text>
</a>
</g>
<g class="mark" data-code="SA">
<a href="https://h9-tec.github.io/arabic-ai-atlas/#country=SA&amp;type=llm" target="_blank" rel="noopener"><title>Saudi Arabia · LLM · 1 entry · 1K downloads · most downloaded: ALLaM 7B (1K)</title><circle class="bubble" cx="1170.2" cy="340" r="26" fill="#4F46E5"/></a>
<a href="https://h9-tec.github.io/arabic-ai-atlas/#country=SA&amp;type=dataset" target="_blank" rel="noopener"><title>Saudi Arabia · Dataset · 1 entry · 10 downloads · most downloaded: CIDAR (10)</title><circle class="bubble" cx="1170.2" cy="374.6" r="5.7" fill="#047857"/></a>
<a href="https://h9-tec.github.io/arabic-ai-atlas/#country=SA" target="_blank" rel="noopener">
<title>Saudi Arabia, 2 entries</title>
<text class="halo l-ar" x="1170.2" y="424.3" text-anchor="middle" lang="ar">السعودية</text>
<text class="halo l-en" x="1170.2" y="443.3" text-anchor="middle">Saudi Arabia</text>
<text class="halo l-n" x="1170.2" y="461.3" text-anchor="middle">2 entries</text>
</a>
</g>
<g class="legend" transform="translate(14,445)">
<rect class="panel" x="0" y="0" width="384" height="194" rx="3"/>
<text class="lg-h" x="14" y="24">Entries per country</text>
<rect class="s0 void" x="14" y="32" width="68.8" height="11"/>
<rect class="s1 void" x="85.8" y="32" width="68.8" height="11"/>
<rect class="s2 void" x="157.6" y="32" width="68.8" height="11"/>
<rect class="s3" x="229.4" y="32" width="68.8" height="11"/>
<text class="lg" x="229.4" y="60">1</text>
<rect class="s4" x="301.2" y="32" width="68.8" height="11"/>
<text class="lg" x="301.2" y="60">2</text>
<rect class="unlisted" x="14" y="79" width="28" height="12"/>
<text class="lg" x="50" y="90">Arab League, nothing listed yet</text>
<text class="lg-h" x="14" y="120">Bubble area: Hugging Face downloads per type</text>
<circle class="lg-ring" cx="34" cy="169.5" r="10.5"/>
<text class="lg" x="34" y="197" text-anchor="middle">100</text>
<circle class="lg-ring" cx="94" cy="154" r="26"/>
<text class="lg" x="94" y="197" text-anchor="middle">1K</text>
</g>
<rect class="frame" x="0.5" y="0.5" width="1599" height="652"/>
</g>
<a href="https://h9-tec.github.io/arabic-ai-atlas/#country=INTL" target="_blank" rel="noopener"><title>Built outside the region, or by global teams. Not placed on the map; bubbles use their own scale.</title><text class="dock-ar" x="24" y="773" lang="ar">دولي</text><text class="dock-en" x="24" y="801">International · 3</text></a>
<text class="dock-note" x="24" y="821">Own bubble scale, dashed</text>
<a href="https://h9-tec.github.io/arabic-ai-atlas/#country=INTL&amp;type=llm" target="_blank" rel="noopener"><title>International · LLM · 1 entry · 10K downloads · most downloaded: SILMA 9B (10K)</title><circle class="over" cx="248" cy="773" r="29"/><circle class="bubble" cx="248" cy="773" r="26" fill="#4F46E5"/><text class="di-t" x="286" y="761">LLM</text><text class="di-n" x="286" y="779">1 entry</text><text class="di-n" x="286" y="797">10K downloads</text></a>
<a href="https://h9-tec.github.io/arabic-ai-atlas/#country=INTL&amp;type=tts" target="_blank" rel="noopener"><title>International · TTS · 1 entry</title><circle class="over" cx="442.3" cy="773" r="7"/><circle class="bubble" cx="442.3" cy="773" r="4" fill="#0E7490"/><text class="di-t" x="480.3" y="770">TTS</text><text class="di-n" x="480.3" y="788">1 entry</text></a>
<a href="https://h9-tec.github.io/arabic-ai-atlas/#country=INTL&amp;type=dataset" target="_blank" rel="noopener"><title>International · Dataset · 1 entry</title><circle class="over" cx="588.9" cy="773" r="7"/><circle class="bubble" cx="588.9" cy="773" r="4" fill="#047857"/><text class="di-t" x="626.9" y="770">Dataset</text><text class="di-n" x="626.9" y="788">1 entry</text></a>
<line class="rule" x1="24" y1="829" x2="1576" y2="829"/>
<text class="footer" x="1576" y="849" text-anchor="end">Generated 2026-10-04 from 6 entries · github.com/h9-tec/arabic-ai-atlas</text>
</svg>
